<svg width="271" height="544" viewBox="0 0 271 544" fill="none" xmlns="http://www.w3.org/2000/svg">
<rect width="271" height="544" rx="10" fill="black"/>
<rect x="3" y="3" width="265" height="538" rx="10" fill="#2B2B4D"/>
<path d="M108.75 17.375C111.542 17.7083 113.958 17.9583 116 18.125C118.042 18.25 119.729 18.3542 121.062 18.4375C122.604 18.5208 123.896 18.5417 124.938 18.5C126.021 18.4583 127.5 18.3542 129.375 18.1875C130.958 18.0625 133.042 17.8958 135.625 17.6875C138.208 17.4375 141.438 17.1042 145.312 16.6875C145.354 17.6458 145.375 18.5833 145.375 19.5C145.417 20.375 145.458 21.1458 145.5 21.8125C145.542 22.6042 145.562 23.3333 145.562 24C145.562 24.7083 145.521 25.6042 145.438 26.6875C145.354 27.6042 145.208 28.7708 145 30.1875C144.833 31.5625 144.562 33.2083 144.188 35.125C143.604 32.875 143.042 31.0625 142.5 29.6875C141.958 28.2708 141.458 27.1458 141 26.3125C140.5 25.3542 140 24.625 139.5 24.125C138.958 23.75 138.312 23.4375 137.562 23.1875C136.896 22.9792 136.042 22.8125 135 22.6875C134 22.5625 132.812 22.5833 131.438 22.75C131.229 28.25 131.083 32.7083 131 36.125C130.917 39.5417 130.854 42.2083 130.812 44.125C130.771 46.4167 130.75 48.0625 130.75 49.0625C130.792 50.4792 131.021 51.875 131.438 53.25C131.771 54.4167 132.312 55.625 133.062 56.875C133.812 58.125 134.896 59.2292 136.312 60.1875H128.688C127.979 60.1875 127.104 60.2292 126.062 60.3125C125.188 60.3958 124.062 60.4792 122.688 60.5625C121.354 60.6458 119.792 60.7917 118 61C118.625 59.9167 119.125 58.9375 119.5 58.0625C119.875 57.1875 120.167 56.4375 120.375 55.8125C120.625 55.0625 120.812 54.3958 120.938 53.8125C120.979 52.9792 121.083 51.2917 121.25 48.75C121.292 47.7083 121.333 46.4167 121.375 44.875C121.458 43.3333 121.542 41.5 121.625 39.375C121.75 37.25 121.854 34.8125 121.938 32.0625C122.062 29.2708 122.188 26.125 122.312 22.625C121.562 22.4167 120.854 22.4375 120.188 22.6875C119.521 22.8958 118.938 23.1667 118.438 23.5C117.854 23.9167 117.292 24.4167 116.75 25C116.208 25.7083 115.604 26.625 114.938 27.75C114.354 28.7083 113.688 29.9792 112.938 31.5625C112.188 33.1042 111.333 35.0208 110.375 37.3125C110.167 34.8958 110.021 32.9167 109.938 31.375C109.854 29.7917 109.792 28.5625 109.75 27.6875C109.708 26.6458 109.688 25.875 109.688 25.375C109.688 24.9167 109.646 24.3125 109.562 23.5625C109.479 22.9375 109.375 22.125 109.25 21.125C109.125 20.0833 108.958 18.8333 108.75 17.375ZM107.438 97.3125C110.354 97.3958 112.771 97.4583 114.688 97.5C116.646 97.5 118.229 97.5 119.438 97.5H122.75H141.375C141.458 98.3333 141.521 99.1458 141.562 99.9375C141.646 100.688 141.688 101.354 141.688 101.938C141.688 102.646 141.667 103.292 141.625 103.875C141.583 104.458 141.521 105.083 141.438 105.75C141.354 106.333 141.271 106.958 141.188 107.625C141.104 108.292 140.958 108.979 140.75 109.688C140.167 107.438 139.375 105.729 138.375 104.562C137.417 103.396 136.438 102.542 135.438 102C134.271 101.375 133.042 101.042 131.75 101C130.042 101.083 128.708 101.229 127.75 101.438C126.792 101.646 126.042 101.938 125.5 102.312C124.958 102.688 124.542 103.125 124.25 103.625C124 104.083 123.729 104.604 123.438 105.188C123.188 105.688 122.958 106.458 122.75 107.5C122.542 108.375 122.333 109.562 122.125 111.062C121.958 112.562 121.771 114.5 121.562 116.875C122.688 116.542 123.583 116.229 124.25 115.938C124.958 115.646 125.521 115.396 125.938 115.188C126.396 114.938 126.729 114.708 126.938 114.5C127.104 114.25 127.354 113.792 127.688 113.125C127.938 112.542 128.271 111.75 128.688 110.75C129.146 109.75 129.688 108.375 130.312 106.625C130.396 108.542 130.438 110.146 130.438 111.438C130.438 112.688 130.458 113.708 130.5 114.5C130.5 115.417 130.521 116.146 130.562 116.688V119.062C130.562 119.938 130.562 121.125 130.562 122.625C130.604 124.083 130.667 125.938 130.75 128.188C130.25 126.646 129.792 125.438 129.375 124.562C129 123.646 128.667 122.958 128.375 122.5C128.042 121.958 127.75 121.583 127.5 121.375C127.208 121.292 126.812 121.208 126.312 121.125C125.854 121.083 125.271 121.062 124.562 121.062C123.896 121.062 123.042 121.167 122 121.375C121.875 123.667 121.854 125.521 121.938 126.938C122.062 128.312 122.229 129.375 122.438 130.125C122.646 131 122.896 131.625 123.188 132C123.562 132.375 124.312 132.688 125.438 132.938C126.562 133.146 127.833 133.229 129.25 133.188C130.708 133.104 132.188 132.854 133.688 132.438C135.188 132.021 136.521 131.333 137.688 130.375C138.562 129.583 139.5 128.583 140.5 127.375C141.333 126.333 142.25 125.021 143.25 123.438C144.292 121.854 145.312 119.938 146.312 117.688C146.146 119.562 146.021 121.125 145.938 122.375C145.896 123.583 145.833 124.562 145.75 125.312C145.667 126.188 145.604 126.854 145.562 127.312C145.562 127.812 145.5 128.521 145.375 129.438C145.292 130.229 145.146 131.312 144.938 132.688C144.771 134.021 144.542 135.729 144.25 137.812C142.292 137.854 140.438 137.896 138.688 137.938C136.938 137.938 135.396 137.958 134.062 138C132.479 138.042 131.021 138.083 129.688 138.125C128.312 138.125 126.792 138.188 125.125 138.312C123.667 138.396 121.938 138.521 119.938 138.688C117.979 138.854 115.812 139.083 113.438 139.375C113.646 136.542 113.792 133.875 113.875 131.375C114 128.833 114.083 126.604 114.125 124.688C114.167 122.438 114.167 120.354 114.125 118.438C114.333 113.646 114.25 109.771 113.875 106.812C113.5 103.854 113.062 101.958 112.562 101.125C112.312 100.833 111.958 100.479 111.5 100.062C111.125 99.7292 110.604 99.3333 109.938 98.875C109.271 98.4167 108.438 97.8958 107.438 97.3125ZM150.5 171.25C149.917 172.583 149.396 173.75 148.938 174.75C148.479 175.75 148.083 176.604 147.75 177.312C147.375 178.104 147.062 178.812 146.812 179.438C146.604 179.896 146.333 180.521 146 181.312C145.667 182.021 145.25 182.958 144.75 184.125C144.292 185.25 143.688 186.708 142.938 188.5C142.562 186.958 142.104 185.604 141.562 184.438C141.021 183.271 140.438 182.25 139.812 181.375C139.188 180.5 138.521 179.792 137.812 179.25C137.146 178.667 136.479 178.188 135.812 177.812C134.271 176.979 132.646 176.521 130.938 176.438C128.688 176.562 126.917 176.938 125.625 177.562C124.375 178.146 123.458 178.833 122.875 179.625C122.292 180.375 121.979 181.167 121.938 182C121.896 182.792 122 183.458 122.25 184C122.458 184.5 123.188 185.083 124.438 185.75C125.729 186.417 127.271 187.188 129.062 188.062C130.896 188.896 132.854 189.854 134.938 190.938C137.021 191.979 138.938 193.146 140.688 194.438C142.479 195.688 143.979 197.062 145.188 198.562C146.438 200.021 147.125 201.583 147.25 203.25C147.375 205.375 147.354 207.292 147.188 209C147.021 210.708 146.438 212.167 145.438 213.375C144.438 214.583 142.875 215.542 140.75 216.25C138.667 216.958 135.771 217.396 132.062 217.562C128.229 217.729 125.083 217.521 122.625 216.938C120.167 216.354 118.167 215.562 116.625 214.562C115.125 213.562 114 212.458 113.25 211.25C112.542 210.042 112.021 208.896 111.688 207.812C111.354 206.688 111.125 205.729 111 204.938C110.875 204.104 110.667 203.604 110.375 203.438C110.042 203.229 109.708 203.042 109.375 202.875C109.083 202.708 108.771 202.562 108.438 202.438C108.104 202.271 107.771 202.125 107.438 202L125.625 199.062C124.583 199.896 123.771 200.667 123.188 201.375C122.646 202.083 122.229 202.708 121.938 203.25C121.604 203.875 121.375 204.458 121.25 205C121.167 205.583 121.354 206.312 121.812 207.188C122.271 208.062 122.896 208.917 123.688 209.75C124.521 210.542 125.479 211.208 126.562 211.75C127.646 212.292 128.771 212.521 129.938 212.438C131.396 212.312 132.583 211.958 133.5 211.375C134.417 210.75 135.104 209.979 135.562 209.062C136.062 208.146 136.354 207.146 136.438 206.062C136.521 204.979 136.417 203.917 136.125 202.875C135.875 201.792 135.458 200.792 134.875 199.875C134.292 198.917 133.604 198.125 132.812 197.5C132.104 197 131 196.521 129.5 196.062C128.042 195.604 126.396 195.104 124.562 194.562C122.771 194.021 120.917 193.396 119 192.688C117.125 191.979 115.417 191.104 113.875 190.062C112.375 189.021 111.167 187.792 110.25 186.375C109.375 184.958 109.042 183.25 109.25 181.25C109.417 179.542 109.958 178.125 110.875 177C111.833 175.833 113.021 174.917 114.438 174.25C115.896 173.542 117.5 173.021 119.25 172.688C121.042 172.354 122.854 172.167 124.688 172.125C126.562 172.042 128.396 172.062 130.188 172.188C132.021 172.312 133.667 172.458 135.125 172.625C136.583 172.792 137.812 172.958 138.812 173.125C139.854 173.25 140.5 173.333 140.75 173.375C141.833 173.458 142.917 173.438 144 173.312C144.958 173.229 146 173.042 147.125 172.75C148.292 172.417 149.417 171.917 150.5 171.25ZM108.75 248.375C111.542 248.708 113.958 248.958 116 249.125C118.042 249.25 119.729 249.354 121.062 249.438C122.604 249.521 123.896 249.542 124.938 249.5C126.021 249.458 127.5 249.354 129.375 249.188C130.958 249.062 133.042 248.896 135.625 248.688C138.208 248.438 141.438 248.104 145.312 247.688C145.354 248.646 145.375 249.583 145.375 250.5C145.417 251.375 145.458 252.146 145.5 252.812C145.542 253.604 145.562 254.333 145.562 255C145.562 255.708 145.521 256.604 145.438 257.688C145.354 258.604 145.208 259.771 145 261.188C144.833 262.562 144.562 264.208 144.188 266.125C143.604 263.875 143.042 262.062 142.5 260.688C141.958 259.271 141.458 258.146 141 257.312C140.5 256.354 140 255.625 139.5 255.125C138.958 254.75 138.312 254.438 137.562 254.188C136.896 253.979 136.042 253.812 135 253.688C134 253.562 132.812 253.583 131.438 253.75C131.229 259.25 131.083 263.708 131 267.125C130.917 270.542 130.854 273.208 130.812 275.125C130.771 277.417 130.75 279.062 130.75 280.062C130.792 281.479 131.021 282.875 131.438 284.25C131.771 285.417 132.312 286.625 133.062 287.875C133.812 289.125 134.896 290.229 136.312 291.188H128.688C127.979 291.188 127.104 291.229 126.062 291.312C125.188 291.396 124.062 291.479 122.688 291.562C121.354 291.646 119.792 291.792 118 292C118.625 290.917 119.125 289.938 119.5 289.062C119.875 288.188 120.167 287.438 120.375 286.812C120.625 286.062 120.812 285.396 120.938 284.812C120.979 283.979 121.083 282.292 121.25 279.75C121.292 278.708 121.333 277.417 121.375 275.875C121.458 274.333 121.542 272.5 121.625 270.375C121.75 268.25 121.854 265.812 121.938 263.062C122.062 260.271 122.188 257.125 122.312 253.625C121.562 253.417 120.854 253.438 120.188 253.688C119.521 253.896 118.938 254.167 118.438 254.5C117.854 254.917 117.292 255.417 116.75 256C116.208 256.708 115.604 257.625 114.938 258.75C114.354 259.708 113.688 260.979 112.938 262.562C112.188 264.104 111.333 266.021 110.375 268.312C110.167 265.896 110.021 263.917 109.938 262.375C109.854 260.792 109.792 259.562 109.75 258.688C109.708 257.646 109.688 256.875 109.688 256.375C109.688 255.917 109.646 255.312 109.562 254.562C109.479 253.938 109.375 253.125 109.25 252.125C109.125 251.083 108.958 249.833 108.75 248.375ZM107.75 402.375C109.083 402.583 110.292 402.771 111.375 402.938C112.458 403.062 113.396 403.167 114.188 403.25C115.104 403.375 115.917 403.479 116.625 403.562C117.5 403.688 118.812 403.542 120.562 403.125C122.312 402.667 124.229 402.25 126.312 401.875C128.438 401.458 130.604 401.229 132.812 401.188C135.021 401.104 137.042 401.5 138.875 402.375C140.708 403.25 142.208 404.125 143.375 405C144.542 405.875 145.458 406.812 146.125 407.812C146.833 408.771 147.333 409.792 147.625 410.875C147.917 411.958 148.083 413.146 148.125 414.438C148.083 416.354 147.625 418.208 146.75 420C146.375 420.75 145.875 421.542 145.25 422.375C144.667 423.167 143.938 423.938 143.062 424.688C142.188 425.438 141.146 426.146 139.938 426.812C138.771 427.479 137.396 428.062 135.812 428.562C137.354 429.021 138.625 429.562 139.625 430.188C140.667 430.812 141.5 431.396 142.125 431.938C142.875 432.604 143.438 433.25 143.812 433.875C144.271 434.75 144.583 435.5 144.75 436.125C144.917 436.75 145.021 437.354 145.062 437.938C145.146 438.479 145.25 439.042 145.375 439.625C145.5 440.208 145.771 440.875 146.188 441.625C146.521 442.208 146.917 442.812 147.375 443.438C147.792 443.979 148.271 444.562 148.812 445.188C149.396 445.812 150.104 446.417 150.938 447C149.771 447.042 148.688 447.062 147.688 447.062C146.729 447.062 145.896 447.062 145.188 447.062C144.354 447.062 143.562 447.042 142.812 447C142.062 446.958 141.125 446.938 140 446.938C139.042 446.938 137.812 446.938 136.312 446.938C134.854 446.938 133.083 446.958 131 447C131.917 446.292 132.667 445.583 133.25 444.875C133.833 444.167 134.292 443.521 134.625 442.938C135 442.271 135.271 441.625 135.438 441C135.646 439.875 135.667 438.708 135.5 437.5C135.375 436.458 135.042 435.312 134.5 434.062C133.958 432.771 133.083 431.479 131.875 430.188C130.667 430.396 129.646 430.562 128.812 430.688C128.021 430.771 127.333 430.854 126.75 430.938C126.083 431.021 125.542 431.083 125.125 431.125C124.75 431.167 124.333 431.208 123.875 431.25C123.5 431.292 123.083 431.354 122.625 431.438C122.208 431.479 121.812 431.542 121.438 431.625C121.354 433.417 121.354 434.979 121.438 436.312C121.521 437.604 121.625 438.688 121.75 439.562C121.917 440.604 122.104 441.5 122.312 442.25C122.521 443 122.812 443.729 123.188 444.438C123.479 445.021 123.854 445.646 124.312 446.312C124.771 446.938 125.292 447.458 125.875 447.875C124.792 447.875 123.75 447.875 122.75 447.875C121.792 447.875 120.917 447.854 120.125 447.812C119.208 447.812 118.333 447.792 117.5 447.75C116.667 447.708 115.729 447.688 114.688 447.688C113.812 447.688 112.771 447.688 111.562 447.688C110.396 447.688 109.125 447.708 107.75 447.75C108.833 446.625 109.688 445.667 110.312 444.875C110.938 444.083 111.417 443.417 111.75 442.875C112.125 442.292 112.354 441.792 112.438 441.375C112.521 440.708 112.583 439.521 112.625 437.812C112.708 436.062 112.771 434.062 112.812 431.812C112.854 429.562 112.875 427.208 112.875 424.75C112.875 422.292 112.854 420 112.812 417.875C112.771 415.708 112.729 413.854 112.688 412.312C112.646 410.771 112.604 409.792 112.562 409.375C112.438 408.625 112.167 407.875 111.75 407.125C111.417 406.458 110.938 405.708 110.312 404.875C109.688 404.042 108.833 403.208 107.75 402.375ZM131.375 424.375C131.792 424.125 132.146 423.875 132.438 423.625C132.729 423.375 132.979 422.979 133.188 422.438C133.396 421.854 133.562 421.042 133.688 420C133.854 418.958 134.042 417.542 134.25 415.75C134.417 413.958 134.292 412.479 133.875 411.312C133.5 410.146 132.979 409.229 132.312 408.562C131.688 407.854 130.979 407.375 130.188 407.125C129.438 406.833 128.771 406.688 128.188 406.688C127.021 406.688 125.875 407.042 124.75 407.75C123.625 408.458 122.771 409.417 122.188 410.625C121.979 411.167 121.792 412.062 121.625 413.312C121.5 414.396 121.417 415.896 121.375 417.812C121.333 419.729 121.396 422.25 121.562 425.375C123.146 425.625 124.542 425.729 125.75 425.688C126.958 425.604 127.979 425.458 128.812 425.25C129.812 425.042 130.667 424.75 131.375 424.375ZM110 481.062C111.25 481.312 112.312 481.5 113.188 481.625C114.062 481.75 114.792 481.854 115.375 481.938C116.042 482.021 116.604 482.062 117.062 482.062C117.521 482.062 118.146 482.042 118.938 482C119.646 481.958 120.542 481.938 121.625 481.938C122.708 481.896 124.083 481.833 125.75 481.75C124.792 482.417 124.021 482.979 123.438 483.438C122.854 483.896 122.417 484.292 122.125 484.625C121.75 485 121.521 485.312 121.438 485.562C121.354 485.729 121.271 486.354 121.188 487.438C121.104 488.479 121.021 489.812 120.938 491.438C120.896 493.021 120.896 494.812 120.938 496.812C120.979 498.771 121.083 500.771 121.25 502.812C121.458 504.854 121.75 506.833 122.125 508.75C122.5 510.625 123 512.271 123.625 513.688C124.292 515.104 125.083 516.208 126 517C126.958 517.792 128.104 518.083 129.438 517.875C131.188 517.625 132.604 516.771 133.688 515.312C134.771 513.854 135.583 512.083 136.125 510C136.708 507.917 137.062 505.688 137.188 503.312C137.354 500.896 137.375 498.646 137.25 496.562C137.167 494.438 137 492.604 136.75 491.062C136.5 489.521 136.271 488.562 136.062 488.188C135.812 487.771 135.479 487.292 135.062 486.75C134.729 486.292 134.292 485.771 133.75 485.188C133.208 484.562 132.583 483.896 131.875 483.188C133.167 483.229 134.333 483.271 135.375 483.312C136.417 483.312 137.292 483.333 138 483.375C138.833 483.417 139.583 483.458 140.25 483.5C140.917 483.542 141.75 483.604 142.75 483.688C143.583 483.771 144.646 483.854 145.938 483.938C147.271 484.021 148.854 484.146 150.688 484.312C149.979 484.479 149.396 484.708 148.938 485C148.521 485.292 148.188 485.604 147.938 485.938C147.646 486.312 147.438 486.688 147.312 487.062C147.188 487.396 147.083 488.396 147 490.062C146.958 491.688 146.875 493.667 146.75 496C146.667 498.292 146.521 500.792 146.312 503.5C146.104 506.167 145.771 508.708 145.312 511.125C144.896 513.542 144.333 515.688 143.625 517.562C142.958 519.438 142.083 520.729 141 521.438C139.417 522.479 137.75 523.229 136 523.688C134.25 524.104 132.479 524.333 130.688 524.375C128.896 524.375 127.125 524.229 125.375 523.938C123.667 523.604 122.021 523.208 120.438 522.75C118.812 522.25 117.458 521.125 116.375 519.375C115.333 517.625 114.5 515.562 113.875 513.188C113.292 510.771 112.854 508.188 112.562 505.438C112.312 502.646 112.146 499.958 112.062 497.375C112.021 494.792 112.021 492.458 112.062 490.375C112.146 488.25 112.208 486.646 112.25 485.562C112.25 485.021 112.167 484.5 112 484C111.875 483.542 111.646 483.062 111.312 482.562C111.021 482.021 110.583 481.521 110 481.062Z" fill="url(#paint0_linear_74_2)"/>
<defs>
<linearGradient id="paint0_linear_74_2" x1="193.5" y1="589" x2="-170.633" y2="451.959" gradientUnits="userSpaceOnUse">
<stop stop-color="#0B0948"/>
<stop offset="0.629114" stop-color="#B3B2EE"/>
<stop offset="1" stop-color="#C4C4FF"/>
</linearGradient>
</defs>
</svg>
