<svg width="23" height="26" viewBox="0 0 23 26" fill="none" xmlns="http://www.w3.org/2000/svg">
<path d="M17.724 22.7267L10.4912 13.6839C10.4912 13.6839 10.4912 13.6839 10.4159 13.6079C10.3406 13.5319 10.2652 13.4559 10.1899 13.3799C9.88851 13.152 9.5118 13 9.05975 13C8.60771 13 8.231 13.152 7.92963 13.3799C7.85429 13.4559 7.77895 13.5319 7.70361 13.6079C7.70361 13.6079 7.70361 13.6079 7.62827 13.6839L0.395471 22.7267C-0.207262 23.4866 -0.131919 24.7024 0.696839 25.3104C1.45025 25.9183 2.65572 25.8423 3.25845 25.0064L9.05975 18.485L14.8611 25.0824C15.2378 25.5383 15.7652 25.7663 16.2926 25.7663C16.6693 25.7663 17.1213 25.6143 17.4227 25.3864C18.2514 24.7024 18.4021 23.5626 17.724 22.7267Z" fill="white"/>
<path d="M21.4749 0.400642C20.6425 -0.210008 19.5075 -0.133675 18.9021 0.705969L13 7.5L7.24902 0.705969C6.64366 -0.0573435 5.43295 -0.210008 4.67626 0.400642C3.91956 1.01129 3.76822 2.23259 4.37358 2.99591L11.6378 12.0793C11.6378 12.0793 11.7135 12.0793 11.7135 12.1557C11.7892 12.232 11.7892 12.3083 11.8649 12.3083L11.9405 12.3847C12.0162 12.461 12.0919 12.461 12.1675 12.5373C12.2432 12.5373 12.2432 12.6136 12.3189 12.6136C12.3945 12.69 12.4702 12.69 12.6216 12.69H12.6972C12.8486 12.69 12.9242 12.7663 13.0756 12.7663C13.2269 12.7663 13.3782 12.7663 13.4539 12.69H13.5296C13.6053 12.69 13.6809 12.6136 13.8323 12.6136C13.9079 12.6136 13.9079 12.5373 13.9836 12.5373C14.0593 12.461 14.1349 12.461 14.2106 12.3847C14.2863 12.3847 14.2863 12.3083 14.2863 12.3083C14.3619 12.232 14.4376 12.232 14.4376 12.1557C14.4376 12.1557 14.5133 12.1557 14.5133 12.0793L21.7776 2.99591C22.3829 2.15626 22.2316 1.01129 21.4749 0.400642Z" fill="white"/>
</svg>
