<svg width="24" height="23" viewBox="0 0 24 23" fill="none" xmlns="http://www.w3.org/2000/svg">
<path d="M9.61527 16.9009C10.4678 17.4883 11.436 17.8843 12.4541 18.0619L9.58224 20.9517C9.10178 21.4352 8.53137 21.8188 7.90359 22.0805C7.27581 22.3421 6.60296 22.4769 5.92344 22.4769C5.24393 22.4769 4.57106 22.3423 3.94325 22.0807C3.31545 21.819 2.745 21.4355 2.26449 20.9521C1.29405 19.9757 0.748818 18.6513 0.748749 17.2704C0.74868 15.8895 1.29378 14.5652 2.26412 13.5887L7.14197 8.67977C8.1133 7.70497 9.42917 7.15755 10.801 7.15755C12.1729 7.15755 13.4888 7.70497 14.4601 8.67977C14.5643 8.78715 14.6507 8.91068 14.716 9.04563C14.7257 9.0651 14.7371 9.08299 14.7458 9.10266C14.8023 9.23007 14.8396 9.3652 14.8565 9.50363C14.8592 9.52486 14.8608 9.54526 14.8625 9.56649C14.8753 9.70926 14.8666 9.85315 14.8366 9.99329C14.8351 10.0001 14.8324 10.0064 14.8308 10.0131C14.7739 10.2594 14.6525 10.4858 14.4792 10.6688C14.3059 10.8518 14.087 10.9847 13.8453 11.0536C13.6036 11.1226 13.348 11.1251 13.105 11.0609C12.862 10.9967 12.6406 10.8681 12.4637 10.6885C12.1921 10.4161 11.8584 10.2146 11.4917 10.1015C11.125 9.9885 10.7364 9.96739 10.3597 10.04L10.3594 10.0401C9.89705 10.1284 9.47164 10.3542 9.1383 10.6885L6.93106 12.9103L6.92901 12.912L4.26052 15.5975C3.82049 16.0415 3.57339 16.6431 3.57339 17.2702C3.57339 17.8973 3.82049 18.4988 4.26052 18.9429C4.70855 19.373 5.30399 19.613 5.92321 19.613C6.54243 19.613 7.13786 19.373 7.5859 18.9429L9.61527 16.9009ZM22.2607 2.25102C21.7803 1.76744 21.2099 1.38383 20.5822 1.12211C19.9544 0.860386 19.2815 0.725677 18.602 0.725677C17.9225 0.725677 17.2496 0.860386 16.6219 1.12211C15.9941 1.38383 15.4237 1.76744 14.9433 2.25102L12.0685 5.14378C13.0864 5.3224 14.0547 5.7179 14.9084 6.30375L16.9397 4.2598C17.3875 3.82956 17.9828 3.58949 18.602 3.58949C19.2212 3.58949 19.8165 3.82956 20.2643 4.2598C20.4827 4.47944 20.6559 4.74024 20.7741 5.02728C20.8923 5.31432 20.9531 5.62198 20.953 5.93267C20.9529 6.24337 20.892 6.55101 20.7738 6.838C20.6555 7.125 20.4822 7.38573 20.2637 7.60529L19.3689 8.5063L19.3659 8.51006L15.3866 12.5135C14.9387 12.9436 14.3433 13.1836 13.7242 13.1836C13.1051 13.1836 12.5097 12.9436 12.0618 12.5135C11.797 12.2477 11.4381 12.0985 11.064 12.0987C10.6899 12.099 10.3312 12.2486 10.0667 12.5148C9.80219 12.781 9.65349 13.1419 9.65327 13.5183C9.65304 13.8947 9.80131 14.2559 10.0655 14.5223C10.5459 15.0059 11.1163 15.3895 11.7441 15.6512C12.3718 15.9129 13.0447 16.0476 13.7242 16.0476C14.4037 16.0476 15.0766 15.9129 15.7043 15.6512C16.3321 15.3895 16.9025 15.0059 17.3829 14.5223L21.3629 10.5182L21.3666 10.5152L22.2607 9.61408C22.7413 9.13068 23.1225 8.55674 23.3826 7.92505C23.6427 7.29337 23.7766 6.61631 23.7766 5.93256C23.7766 5.24881 23.6427 4.57175 23.3826 3.94007C23.1225 3.30838 22.7413 2.73442 22.2607 2.25102Z" fill="white"/>
</svg>
