<svg width="27" height="22" viewBox="0 0 27 22" fill="none" xmlns="http://www.w3.org/2000/svg">
<path d="M7.82391 1.49331C7.30319 0.973218 6.58326 0.651062 5.78952 0.651062C4.99471 0.651062 4.27365 0.973217 3.75403 1.49221C3.23441 2.01231 2.91187 2.73138 2.91187 3.52527C2.91187 4.31913 3.23441 5.03933 3.75403 5.55833C4.27475 6.07732 4.99468 6.39948 5.78952 6.39948C6.58436 6.39948 7.30539 6.07732 7.82501 5.55833C8.34462 5.03823 8.66716 4.31916 8.66716 3.52527C8.66716 2.73141 8.34462 2.01231 7.82391 1.49221V1.49331ZM15.4254 2.51478C15.0148 2.10356 14.4445 1.84955 13.8149 1.84955C13.1951 1.84955 12.6336 2.09585 12.2142 2.50597C11.7926 2.92819 11.5372 3.49774 11.5372 4.12558C11.5372 4.75453 11.7926 5.32408 12.2032 5.73532C12.6149 6.14654 13.1852 6.40055 13.8149 6.40055C14.4435 6.40055 15.0137 6.14545 15.4254 5.73422C15.8371 5.32301 16.0925 4.75343 16.0925 4.12561C16.0925 3.49777 15.8371 2.92822 15.4254 2.51588L15.4254 2.51478ZM12.0413 13.3583L7.66665 10.836C7.54996 10.7689 7.42446 10.7381 7.30226 10.7381C7.17236 10.7381 7.04686 10.7722 6.93897 10.8349C6.83109 10.8964 6.73861 10.9877 6.66816 11.1075C6.61092 11.2142 6.58009 11.3319 6.58009 11.4627V16.5358C6.58009 16.6733 6.61532 16.7964 6.67917 16.9086C6.74742 17.0196 6.83659 17.1043 6.94888 17.1692C7.06116 17.2296 7.17896 17.2604 7.30225 17.2604C7.42444 17.2604 7.54884 17.2296 7.66554 17.1626L12.0633 14.6248C12.18 14.5578 12.2692 14.4654 12.3286 14.3631C12.3936 14.2521 12.4255 14.1245 12.4255 13.9981C12.4233 13.8694 12.3914 13.743 12.3286 13.633C12.2692 13.5297 12.18 13.4384 12.0413 13.3571L12.0413 13.3583ZM8.086 10.1069L12.486 12.6435C12.7359 12.7876 12.9275 12.9866 13.0585 13.212C13.1994 13.455 13.2698 13.7287 13.2698 13.9993C13.2676 14.2719 13.1972 14.5457 13.0585 14.7865C12.9275 15.0119 12.737 15.2109 12.4871 15.355L8.08935 17.8916C7.83285 18.0378 7.56424 18.1049 7.30443 18.1049C7.03913 18.1049 6.77822 18.0345 6.53383 17.9004C6.29604 17.7641 6.10231 17.5771 5.95478 17.3341C5.81387 17.0922 5.73681 16.8262 5.73681 16.5359V11.4628C5.73681 11.1857 5.80836 10.9273 5.93936 10.6909C6.08468 10.438 6.28614 10.2411 6.52171 10.1059C6.7584 9.96958 7.02811 9.89371 7.30441 9.89371C7.56421 9.89371 7.83392 9.96079 8.0882 10.107L8.086 10.1069ZM19.3136 11.6451V16.3524L24.5174 20.8386C24.7486 21.0376 25.0172 21.1267 25.2803 21.1267C25.4542 21.1267 25.626 21.0893 25.779 21.0189C25.9342 20.9485 26.0751 20.8441 26.1874 20.7133C26.3569 20.5175 26.4637 20.2548 26.4637 19.948V8.05087C26.4637 7.74411 26.3569 7.48132 26.1874 7.28558C26.0751 7.15473 25.9342 7.05138 25.779 6.97992C25.6259 6.90955 25.4542 6.87106 25.2803 6.87106C25.0172 6.87106 24.7486 6.96122 24.5174 7.15913L19.3136 11.6451ZM15.8867 7.29428H3.11783C2.40888 7.29428 1.76268 7.58454 1.2948 8.05186C0.826927 8.51917 0.536316 9.16348 0.536316 9.8727V18.1246C0.536316 18.8327 0.826927 19.4781 1.2948 19.9455C1.76268 20.4128 2.40886 20.703 3.11783 20.703H15.8867C16.5957 20.703 17.2419 20.4128 17.7097 19.9455C18.1776 19.4781 18.4682 18.8327 18.4682 18.1246V9.8727C18.4682 9.16461 18.1776 8.51917 17.7097 8.05186C17.243 7.58454 16.5968 7.29428 15.8867 7.29428Z" fill="white"/>
</svg>
