<svg width="25" height="25" viewBox="0 0 25 25" fill="none" xmlns="http://www.w3.org/2000/svg">
<path d="M18.871 0.9216C18.871 0.4128 19.1707 0 19.54 0H21.7639C22.1332 0 22.4329 0.4128 22.4329 0.9216V19.3536H18.8719L18.871 0.9216Z" fill="white"/>
<path d="M11.0322 11.7216C11.0322 11.2128 11.3319 10.8 11.7012 10.8H13.9251C14.2944 10.8 14.594 11.2128 14.594 11.7216V19.3536H11.0331L11.0322 11.7216Z" fill="white"/>
<path d="M3.19342 5.72159C3.19342 5.21279 3.49307 4.79999 3.86241 4.79999H6.08626C6.45559 4.79999 6.75524 5.21279 6.75524 5.72159V19.3536H3.19342V5.72159Z" fill="white"/>
<path d="M24.7247 23.082C24.7247 23.7672 24.3205 24.324 23.8231 24.324H1.80235C1.30497 24.324 0.900787 23.7672 0.900787 23.082V21.3768C0.900787 20.6916 1.30497 20.1348 1.80235 20.1348H23.8231C24.3205 20.1348 24.7247 20.6916 24.7247 21.3768V23.082Z" fill="white"/>
</svg>
