<svg width="14" height="17" viewBox="0 0 14 17" fill="none" xmlns="http://www.w3.org/2000/svg">
<path d="M12.1577 3.2013L12.4472 4.0341C12.4795 4.12727 12.5548 4.18775 12.6376 4.18775H12.641C12.7251 4.18612 12.8005 4.12237 12.8308 4.02593L13.9864 0.340092C14.0154 0.24774 13.9972 0.14313 13.9393 0.0736705C13.8814 0.00338492 13.7953 -0.0186816 13.7199 0.0164611L10.6845 1.4197C10.6057 1.45648 10.5525 1.5472 10.5512 1.65018C10.5498 1.75234 10.5997 1.84633 10.6777 1.88555L11.3636 2.23698L9.95621 3.9459L9.44537 3.3256C8.49569 1.53088 6.90855 0.765994 5.4905 1.42136C4.29179 1.97464 3.48541 1.87576 3.0245 1.11652C2.89326 0.899937 2.66239 0.82558 2.46385 0.935088C2.24106 1.05768 2.13809 1.37315 2.22895 1.65184C2.36288 2.0621 2.61192 2.45849 2.94037 2.76251L3.58314 11.6853L3.09921 12.273L2.05059 11.9044C1.97858 11.8782 1.89983 11.9036 1.84666 11.9681L0.0603931 14.1371C0.00856782 14.2 -0.0116244 14.2908 0.00654843 14.3774C0.0247212 14.4632 0.0792396 14.531 0.149236 14.5564L0.979115 14.8481L0.680945 15.2102C0.57393 15.3377 0.515373 15.5093 0.515373 15.6932C0.515373 15.8771 0.574602 16.0487 0.679598 16.1737C0.785268 16.3037 0.926611 16.3748 1.0767 16.3748C1.2268 16.3748 1.36814 16.3029 1.47314 16.1746L1.77265 15.8109L2.01293 16.8186C2.03312 16.9036 2.08899 16.9698 2.16033 16.9918C2.17716 16.9975 2.19466 17 2.21148 17C2.26533 17 2.3185 16.9738 2.35754 16.9264L4.1438 14.7575C4.19697 14.6929 4.21716 14.5981 4.1963 14.5098L3.89275 13.2365L4.37668 12.6489L11.7251 13.4294C11.9754 13.8282 12.3019 14.1306 12.6397 14.2933C12.6963 14.3202 12.7548 14.3333 12.812 14.3333C12.9877 14.3333 13.154 14.2124 13.23 14.008C13.3202 13.7669 13.259 13.4874 13.0806 13.3272C12.456 12.7682 12.3739 11.7883 12.8296 10.3335C13.3693 8.6107 12.7387 6.68449 11.2613 5.53127L10.7505 4.91097L12.1578 3.20206L12.1577 3.2013ZM13.4359 0.685005L12.6275 3.2626L12.2701 2.23366C12.2493 2.17318 12.2096 2.12496 12.1598 2.09962L11.3124 1.66566L13.4352 0.684122L13.4359 0.685005ZM9.20378 4.85958L8.82485 4.39865L9.28455 3.84045L9.66348 4.30057L9.2031 4.85958H9.20378ZM2.61388 1.46707C2.60379 1.43683 2.61321 1.40414 2.63542 1.39188C2.65763 1.37962 2.68051 1.39515 2.69196 1.41477C3.27012 2.36689 4.26086 2.52707 5.6373 1.89122C6.83064 1.33957 8.17136 1.96723 9.01874 3.45467L8.53011 4.048C7.56225 2.94141 6.70336 2.62758 5.84804 2.62758C5.4395 2.62758 5.03229 2.6995 4.61365 2.79021C3.6956 2.98962 2.87511 2.27534 2.6127 1.46869L2.61388 1.46707ZM3.37848 3.08117C3.76009 3.29284 4.20634 3.38682 4.68691 3.28222C5.95227 3.00761 7.0285 2.92834 8.38539 4.57514L8.38606 4.57595L8.91105 5.21506L3.96407 11.222L3.37784 3.08122L3.37848 3.08117ZM0.600781 14.1912L2.05324 12.4275L2.76601 12.6784L1.31355 14.4421L0.600781 14.1912ZM1.18029 15.82C1.1251 15.8879 1.0302 15.8903 0.970974 15.8176C0.934628 15.7743 0.928572 15.7203 0.928572 15.6925C0.928572 15.6647 0.933956 15.6108 0.972321 15.5659L9.34658 5.39585L9.35332 5.38768L11.7743 2.44708L11.9217 2.52227L11.9837 2.70125L9.55867 5.64499L9.558 5.6458L1.17909 15.8192L1.18029 15.82ZM3.76552 14.5067L2.31306 16.2704L2.10643 15.4049L3.55889 13.6412L3.76552 14.5067ZM4.75828 12.1856L9.70526 6.17866L10.2316 6.81613C10.2316 6.81613 10.2323 6.81613 10.2323 6.81695C11.5885 8.46456 11.5232 9.77135 11.2971 11.3079C11.2109 11.8914 11.2883 12.4332 11.4626 12.8975L4.75828 12.1856ZM12.4433 10.1547C11.9197 11.826 12.0516 13.0298 12.835 13.7311C12.8512 13.7458 12.864 13.7728 12.8539 13.7998C12.8438 13.8267 12.8169 13.8382 12.792 13.8259C12.1283 13.5072 11.5401 12.5109 11.7043 11.3962C11.9358 9.82462 12.0146 8.37717 10.6678 6.64127L11.1564 6.04794C12.3807 7.07689 12.8976 8.70483 12.444 10.1539L12.4433 10.1547ZM10.8374 5.7259L10.3777 6.2841L9.99811 5.82399L10.4585 5.26497L10.8374 5.72509V5.7259Z" fill="#BBFF00"/>
</svg>
