<svg width="21" height="25" viewBox="0 0 21 25" fill="none" xmlns="http://www.w3.org/2000/svg">
<path d="M17.2043 3.06509C17.1487 3.00794 17.0671 2.98624 16.9918 3.00866L13.3198 4.09011C13.2797 4.10168 13.2438 4.12555 13.2164 4.15811L6.6664 11.9026L6.46865 11.6993C6.1365 11.3578 5.92329 10.9057 5.86699 10.4254C5.85714 10.3408 5.80155 10.2699 5.72344 10.2417C5.64533 10.2142 5.55877 10.2344 5.49966 10.2945L5.14711 10.6554C4.77485 11.0381 4.77415 11.6631 5.14711 12.0479L5.95496 12.8784L3.45056 15.4536C3.37808 15.421 3.29856 15.4029 3.21692 15.4029C3.06 15.4029 2.91292 15.4659 2.80244 15.5794C2.69125 15.693 2.63074 15.8449 2.63074 16.0062C2.63074 16.1675 2.69196 16.3187 2.80244 16.4323L4.19999 17.8689C4.31047 17.9832 4.45825 18.0454 4.61447 18.0454C4.77139 18.0454 4.91847 17.9825 5.02966 17.8689C5.14014 17.7554 5.20136 17.6035 5.20136 17.4429C5.20136 17.3597 5.18447 17.2787 5.1528 17.2041L7.65721 14.6282L8.46577 15.4594C8.65296 15.6503 8.89783 15.7466 9.14272 15.7466C9.38832 15.7466 9.63321 15.6504 9.81968 15.4587L10.1701 15.097C10.2285 15.0369 10.2482 14.9472 10.2215 14.8669C10.194 14.7866 10.1251 14.7295 10.0428 14.7194C9.81052 14.6912 9.58534 14.6232 9.37282 14.5183C9.16171 14.4127 8.9696 14.2723 8.80352 14.1016L8.60577 13.8983L16.1395 7.16518C16.1712 7.13697 16.1937 7.10007 16.2057 7.05884L17.2577 3.28421C17.2795 3.20681 17.2584 3.1229 17.2028 3.06575L17.2043 3.06509ZM7.64242 13.6575C7.43765 13.868 7.10479 13.868 6.90002 13.6575C6.69524 13.447 6.69524 13.1048 6.90002 12.8943C7.00205 12.7894 7.13646 12.7366 7.27157 12.7366C7.40598 12.7366 7.54039 12.7894 7.64242 12.8943C7.8472 13.1048 7.8472 13.447 7.64242 13.6575ZM5.45255 10.9701L5.52151 10.8999C5.64044 11.3188 5.8614 11.7043 6.16259 12.0139L6.65729 12.5225C6.63618 12.5413 6.61436 12.5601 6.59466 12.5811C6.53977 12.6375 6.49403 12.6997 6.45533 12.7648L5.45396 11.7354C5.24918 11.5242 5.24918 11.1813 5.45325 10.9715L5.45255 10.9701ZM6.42859 15.2647L5.33715 14.1428L5.55529 13.9185L6.64673 15.0405L6.42859 15.2647ZM5.90432 15.8036L4.81288 14.6817L5.03102 14.4574L6.12247 15.5794L5.90432 15.8036ZM5.38006 16.3426L4.28862 15.2206L4.50676 14.9964L5.5982 16.1183L5.38006 16.3426ZM3.78547 15.7386L3.98322 15.5353L5.07466 16.6572L4.87691 16.8605L3.78547 15.7386ZM4.7235 17.5557C4.66509 17.6157 4.56375 17.6157 4.50535 17.5557L3.10781 16.1191C3.07895 16.0894 3.06277 16.0489 3.06277 16.0069C3.06277 15.9642 3.07896 15.9245 3.10781 15.8948C3.13807 15.8637 3.17747 15.8485 3.21688 15.8485C3.25629 15.8485 3.2957 15.8637 3.32595 15.8948L4.7235 17.3314C4.78402 17.3936 4.78401 17.4942 4.7235 17.5557ZM6.95138 14.7266L5.85994 13.6046L6.26035 13.193L6.31524 13.2495C6.3082 13.5106 6.40039 13.7739 6.59391 13.9721C6.7804 14.1638 7.02527 14.26 7.27087 14.26C7.28001 14.26 7.28846 14.2593 7.2969 14.2586L7.35179 14.315L6.95138 14.7266ZM9.18484 14.919C9.31362 14.9827 9.44591 15.0348 9.58173 15.0753L9.51347 15.1455C9.30869 15.356 8.97584 15.3552 8.77036 15.1455L7.80981 14.158V14.1573H7.80911L7.7683 14.1154C7.83163 14.0756 7.89215 14.0286 7.94704 13.9721C7.96744 13.9512 7.98574 13.9295 8.00404 13.9078L8.49874 14.4163C8.6993 14.6225 8.9294 14.791 9.18555 14.919L9.18484 14.919ZM15.8081 6.87292L8.2996 13.5829L8.2046 13.4853C8.27075 13.1692 8.1856 12.8255 7.94704 12.5803C7.70849 12.3351 7.37423 12.2476 7.06672 12.3156L6.97172 12.2179L13.4992 4.49939L16.7348 3.54598L15.8073 6.87209L15.8081 6.87292ZM15.3627 5.70611L15.5428 5.05868C15.5759 4.94077 15.6955 4.87205 15.8103 4.90605C15.925 4.94005 15.9911 5.06302 15.9587 5.18094L15.7786 5.82836C15.7511 5.92602 15.6646 5.98968 15.571 5.98968C15.5513 5.98968 15.5316 5.98678 15.5112 5.98099C15.3965 5.947 15.3303 5.82402 15.3627 5.70611ZM9.05195 11.13L14.075 5.96648C14.1594 5.87967 14.296 5.87967 14.3804 5.96648C14.4648 6.05328 14.4648 6.19363 14.3804 6.28042L9.35735 11.4439C9.31513 11.4873 9.25954 11.509 9.20465 11.509C9.14906 11.509 9.09417 11.4873 9.05195 11.4439C8.9675 11.3571 8.96751 11.2168 9.05195 11.13Z" fill="#2600AF"/>
<path d="M17.2043 3.06509C17.1487 3.00794 17.0671 2.98624 16.9918 3.00866L13.3198 4.09011C13.2797 4.10168 13.2438 4.12555 13.2164 4.15811L6.6664 11.9026L6.46865 11.6993C6.1365 11.3578 5.92329 10.9057 5.86699 10.4254C5.85714 10.3408 5.80155 10.2699 5.72344 10.2417C5.64533 10.2142 5.55877 10.2344 5.49966 10.2945L5.14711 10.6554C4.77485 11.0381 4.77415 11.6631 5.14711 12.0479L5.95496 12.8784L3.45056 15.4536C3.37808 15.421 3.29856 15.4029 3.21692 15.4029C3.06 15.4029 2.91292 15.4659 2.80244 15.5794C2.69125 15.693 2.63074 15.8449 2.63074 16.0062C2.63074 16.1675 2.69196 16.3187 2.80244 16.4323L4.19999 17.8689C4.31047 17.9832 4.45825 18.0454 4.61447 18.0454C4.77139 18.0454 4.91847 17.9825 5.02966 17.8689C5.14014 17.7554 5.20136 17.6035 5.20136 17.4429C5.20136 17.3597 5.18447 17.2787 5.1528 17.2041L7.65721 14.6282L8.46577 15.4594C8.65296 15.6503 8.89783 15.7466 9.14272 15.7466C9.38832 15.7466 9.63321 15.6504 9.81968 15.4587L10.1701 15.097C10.2285 15.0369 10.2482 14.9472 10.2215 14.8669C10.194 14.7866 10.1251 14.7295 10.0428 14.7194C9.81052 14.6912 9.58534 14.6232 9.37282 14.5183C9.16171 14.4127 8.9696 14.2723 8.80352 14.1016L8.60577 13.8983L16.1395 7.16518C16.1712 7.13697 16.1937 7.10007 16.2057 7.05884L17.2577 3.28421C17.2795 3.20681 17.2584 3.1229 17.2028 3.06575L17.2043 3.06509ZM7.64242 13.6575C7.43765 13.868 7.10479 13.868 6.90002 13.6575C6.69524 13.447 6.69524 13.1048 6.90002 12.8943C7.00205 12.7894 7.13646 12.7366 7.27157 12.7366C7.40598 12.7366 7.54039 12.7894 7.64242 12.8943C7.8472 13.1048 7.8472 13.447 7.64242 13.6575ZM5.45255 10.9701L5.52151 10.8999C5.64044 11.3188 5.8614 11.7043 6.16259 12.0139L6.65729 12.5225C6.63618 12.5413 6.61436 12.5601 6.59466 12.5811C6.53977 12.6375 6.49403 12.6997 6.45533 12.7648L5.45396 11.7354C5.24918 11.5242 5.24918 11.1813 5.45325 10.9715L5.45255 10.9701ZM6.42859 15.2647L5.33715 14.1428L5.55529 13.9185L6.64673 15.0405L6.42859 15.2647ZM5.90432 15.8036L4.81288 14.6817L5.03102 14.4574L6.12247 15.5794L5.90432 15.8036ZM5.38006 16.3426L4.28862 15.2206L4.50676 14.9964L5.5982 16.1183L5.38006 16.3426ZM3.78547 15.7386L3.98322 15.5353L5.07466 16.6572L4.87691 16.8605L3.78547 15.7386ZM4.7235 17.5557C4.66509 17.6157 4.56375 17.6157 4.50535 17.5557L3.10781 16.1191C3.07895 16.0894 3.06277 16.0489 3.06277 16.0069C3.06277 15.9642 3.07896 15.9245 3.10781 15.8948C3.13807 15.8637 3.17747 15.8485 3.21688 15.8485C3.25629 15.8485 3.2957 15.8637 3.32595 15.8948L4.7235 17.3314C4.78402 17.3936 4.78401 17.4942 4.7235 17.5557ZM6.95138 14.7266L5.85994 13.6046L6.26035 13.193L6.31524 13.2495C6.3082 13.5106 6.40039 13.7739 6.59391 13.9721C6.7804 14.1638 7.02527 14.26 7.27087 14.26C7.28001 14.26 7.28846 14.2593 7.2969 14.2586L7.35179 14.315L6.95138 14.7266ZM9.18484 14.919C9.31362 14.9827 9.44591 15.0348 9.58173 15.0753L9.51347 15.1455C9.30869 15.356 8.97584 15.3552 8.77036 15.1455L7.80981 14.158V14.1573H7.80911L7.7683 14.1154C7.83163 14.0756 7.89215 14.0286 7.94704 13.9721C7.96744 13.9512 7.98574 13.9295 8.00404 13.9078L8.49874 14.4163C8.6993 14.6225 8.9294 14.791 9.18555 14.919L9.18484 14.919ZM15.8081 6.87292L8.2996 13.5829L8.2046 13.4853C8.27075 13.1692 8.1856 12.8255 7.94704 12.5803C7.70849 12.3351 7.37423 12.2476 7.06672 12.3156L6.97172 12.2179L13.4992 4.49939L16.7348 3.54598L15.8073 6.87209L15.8081 6.87292ZM15.3627 5.70611L15.5428 5.05868C15.5759 4.94077 15.6955 4.87205 15.8103 4.90605C15.925 4.94005 15.9911 5.06302 15.9587 5.18094L15.7786 5.82836C15.7511 5.92602 15.6646 5.98968 15.571 5.98968C15.5513 5.98968 15.5316 5.98678 15.5112 5.98099C15.3965 5.947 15.3303 5.82402 15.3627 5.70611ZM9.05195 11.13L14.075 5.96648C14.1594 5.87967 14.296 5.87967 14.3804 5.96648C14.4648 6.05328 14.4648 6.19363 14.3804 6.28042L9.35735 11.4439C9.31513 11.4873 9.25954 11.509 9.20465 11.509C9.14906 11.509 9.09417 11.4873 9.05195 11.4439C8.9675 11.3571 8.96751 11.2168 9.05195 11.13Z" fill="#2600AF"/>
<path d="M17.2043 3.06509C17.1487 3.00794 17.0671 2.98624 16.9918 3.00866L13.3198 4.09011C13.2797 4.10168 13.2438 4.12555 13.2164 4.15811L6.6664 11.9026L6.46865 11.6993C6.1365 11.3578 5.92329 10.9057 5.86699 10.4254C5.85714 10.3408 5.80155 10.2699 5.72344 10.2417C5.64533 10.2142 5.55877 10.2344 5.49966 10.2945L5.14711 10.6554C4.77485 11.0381 4.77415 11.6631 5.14711 12.0479L5.95496 12.8784L3.45056 15.4536C3.37808 15.421 3.29856 15.4029 3.21692 15.4029C3.06 15.4029 2.91292 15.4659 2.80244 15.5794C2.69125 15.693 2.63074 15.8449 2.63074 16.0062C2.63074 16.1675 2.69196 16.3187 2.80244 16.4323L4.19999 17.8689C4.31047 17.9832 4.45825 18.0454 4.61447 18.0454C4.77139 18.0454 4.91847 17.9825 5.02966 17.8689C5.14014 17.7554 5.20136 17.6035 5.20136 17.4429C5.20136 17.3597 5.18447 17.2787 5.1528 17.2041L7.65721 14.6282L8.46577 15.4594C8.65296 15.6503 8.89783 15.7466 9.14272 15.7466C9.38832 15.7466 9.63321 15.6504 9.81968 15.4587L10.1701 15.097C10.2285 15.0369 10.2482 14.9472 10.2215 14.8669C10.194 14.7866 10.1251 14.7295 10.0428 14.7194C9.81052 14.6912 9.58534 14.6232 9.37282 14.5183C9.16171 14.4127 8.9696 14.2723 8.80352 14.1016L8.60577 13.8983L16.1395 7.16518C16.1712 7.13697 16.1937 7.10007 16.2057 7.05884L17.2577 3.28421C17.2795 3.20681 17.2584 3.1229 17.2028 3.06575L17.2043 3.06509ZM7.64242 13.6575C7.43765 13.868 7.10479 13.868 6.90002 13.6575C6.69524 13.447 6.69524 13.1048 6.90002 12.8943C7.00205 12.7894 7.13646 12.7366 7.27157 12.7366C7.40598 12.7366 7.54039 12.7894 7.64242 12.8943C7.8472 13.1048 7.8472 13.447 7.64242 13.6575ZM5.45255 10.9701L5.52151 10.8999C5.64044 11.3188 5.8614 11.7043 6.16259 12.0139L6.65729 12.5225C6.63618 12.5413 6.61436 12.5601 6.59466 12.5811C6.53977 12.6375 6.49403 12.6997 6.45533 12.7648L5.45396 11.7354C5.24918 11.5242 5.24918 11.1813 5.45325 10.9715L5.45255 10.9701ZM6.42859 15.2647L5.33715 14.1428L5.55529 13.9185L6.64673 15.0405L6.42859 15.2647ZM5.90432 15.8036L4.81288 14.6817L5.03102 14.4574L6.12247 15.5794L5.90432 15.8036ZM5.38006 16.3426L4.28862 15.2206L4.50676 14.9964L5.5982 16.1183L5.38006 16.3426ZM3.78547 15.7386L3.98322 15.5353L5.07466 16.6572L4.87691 16.8605L3.78547 15.7386ZM4.7235 17.5557C4.66509 17.6157 4.56375 17.6157 4.50535 17.5557L3.10781 16.1191C3.07895 16.0894 3.06277 16.0489 3.06277 16.0069C3.06277 15.9642 3.07896 15.9245 3.10781 15.8948C3.13807 15.8637 3.17747 15.8485 3.21688 15.8485C3.25629 15.8485 3.2957 15.8637 3.32595 15.8948L4.7235 17.3314C4.78402 17.3936 4.78401 17.4942 4.7235 17.5557ZM6.95138 14.7266L5.85994 13.6046L6.26035 13.193L6.31524 13.2495C6.3082 13.5106 6.40039 13.7739 6.59391 13.9721C6.7804 14.1638 7.02527 14.26 7.27087 14.26C7.28001 14.26 7.28846 14.2593 7.2969 14.2586L7.35179 14.315L6.95138 14.7266ZM9.18484 14.919C9.31362 14.9827 9.44591 15.0348 9.58173 15.0753L9.51347 15.1455C9.30869 15.356 8.97584 15.3552 8.77036 15.1455L7.80981 14.158V14.1573H7.80911L7.7683 14.1154C7.83163 14.0756 7.89215 14.0286 7.94704 13.9721C7.96744 13.9512 7.98574 13.9295 8.00404 13.9078L8.49874 14.4163C8.6993 14.6225 8.9294 14.791 9.18555 14.919L9.18484 14.919ZM15.8081 6.87292L8.2996 13.5829L8.2046 13.4853C8.27075 13.1692 8.1856 12.8255 7.94704 12.5803C7.70849 12.3351 7.37423 12.2476 7.06672 12.3156L6.97172 12.2179L13.4992 4.49939L16.7348 3.54598L15.8073 6.87209L15.8081 6.87292ZM15.3627 5.70611L15.5428 5.05868C15.5759 4.94077 15.6955 4.87205 15.8103 4.90605C15.925 4.94005 15.9911 5.06302 15.9587 5.18094L15.7786 5.82836C15.7511 5.92602 15.6646 5.98968 15.571 5.98968C15.5513 5.98968 15.5316 5.98678 15.5112 5.98099C15.3965 5.947 15.3303 5.82402 15.3627 5.70611ZM9.05195 11.13L14.075 5.96648C14.1594 5.87967 14.296 5.87967 14.3804 5.96648C14.4648 6.05328 14.4648 6.19363 14.3804 6.28042L9.35735 11.4439C9.31513 11.4873 9.25954 11.509 9.20465 11.509C9.14906 11.509 9.09417 11.4873 9.05195 11.4439C8.9675 11.3571 8.96751 11.2168 9.05195 11.13Z" fill="#2600AF"/>
<path d="M17.2043 3.06509C17.1487 3.00794 17.0671 2.98624 16.9918 3.00866L13.3198 4.09011C13.2797 4.10168 13.2438 4.12555 13.2164 4.15811L6.6664 11.9026L6.46865 11.6993C6.1365 11.3578 5.92329 10.9057 5.86699 10.4254C5.85714 10.3408 5.80155 10.2699 5.72344 10.2417C5.64533 10.2142 5.55877 10.2344 5.49966 10.2945L5.14711 10.6554C4.77485 11.0381 4.77415 11.6631 5.14711 12.0479L5.95496 12.8784L3.45056 15.4536C3.37808 15.421 3.29856 15.4029 3.21692 15.4029C3.06 15.4029 2.91292 15.4659 2.80244 15.5794C2.69125 15.693 2.63074 15.8449 2.63074 16.0062C2.63074 16.1675 2.69196 16.3187 2.80244 16.4323L4.19999 17.8689C4.31047 17.9832 4.45825 18.0454 4.61447 18.0454C4.77139 18.0454 4.91847 17.9825 5.02966 17.8689C5.14014 17.7554 5.20136 17.6035 5.20136 17.4429C5.20136 17.3597 5.18447 17.2787 5.1528 17.2041L7.65721 14.6282L8.46577 15.4594C8.65296 15.6503 8.89783 15.7466 9.14272 15.7466C9.38832 15.7466 9.63321 15.6504 9.81968 15.4587L10.1701 15.097C10.2285 15.0369 10.2482 14.9472 10.2215 14.8669C10.194 14.7866 10.1251 14.7295 10.0428 14.7194C9.81052 14.6912 9.58534 14.6232 9.37282 14.5183C9.16171 14.4127 8.9696 14.2723 8.80352 14.1016L8.60577 13.8983L16.1395 7.16518C16.1712 7.13697 16.1937 7.10007 16.2057 7.05884L17.2577 3.28421C17.2795 3.20681 17.2584 3.1229 17.2028 3.06575L17.2043 3.06509ZM7.64242 13.6575C7.43765 13.868 7.10479 13.868 6.90002 13.6575C6.69524 13.447 6.69524 13.1048 6.90002 12.8943C7.00205 12.7894 7.13646 12.7366 7.27157 12.7366C7.40598 12.7366 7.54039 12.7894 7.64242 12.8943C7.8472 13.1048 7.8472 13.447 7.64242 13.6575ZM5.45255 10.9701L5.52151 10.8999C5.64044 11.3188 5.8614 11.7043 6.16259 12.0139L6.65729 12.5225C6.63618 12.5413 6.61436 12.5601 6.59466 12.5811C6.53977 12.6375 6.49403 12.6997 6.45533 12.7648L5.45396 11.7354C5.24918 11.5242 5.24918 11.1813 5.45325 10.9715L5.45255 10.9701ZM6.42859 15.2647L5.33715 14.1428L5.55529 13.9185L6.64673 15.0405L6.42859 15.2647ZM5.90432 15.8036L4.81288 14.6817L5.03102 14.4574L6.12247 15.5794L5.90432 15.8036ZM5.38006 16.3426L4.28862 15.2206L4.50676 14.9964L5.5982 16.1183L5.38006 16.3426ZM3.78547 15.7386L3.98322 15.5353L5.07466 16.6572L4.87691 16.8605L3.78547 15.7386ZM4.7235 17.5557C4.66509 17.6157 4.56375 17.6157 4.50535 17.5557L3.10781 16.1191C3.07895 16.0894 3.06277 16.0489 3.06277 16.0069C3.06277 15.9642 3.07896 15.9245 3.10781 15.8948C3.13807 15.8637 3.17747 15.8485 3.21688 15.8485C3.25629 15.8485 3.2957 15.8637 3.32595 15.8948L4.7235 17.3314C4.78402 17.3936 4.78401 17.4942 4.7235 17.5557ZM6.95138 14.7266L5.85994 13.6046L6.26035 13.193L6.31524 13.2495C6.3082 13.5106 6.40039 13.7739 6.59391 13.9721C6.7804 14.1638 7.02527 14.26 7.27087 14.26C7.28001 14.26 7.28846 14.2593 7.2969 14.2586L7.35179 14.315L6.95138 14.7266ZM9.18484 14.919C9.31362 14.9827 9.44591 15.0348 9.58173 15.0753L9.51347 15.1455C9.30869 15.356 8.97584 15.3552 8.77036 15.1455L7.80981 14.158V14.1573H7.80911L7.7683 14.1154C7.83163 14.0756 7.89215 14.0286 7.94704 13.9721C7.96744 13.9512 7.98574 13.9295 8.00404 13.9078L8.49874 14.4163C8.6993 14.6225 8.9294 14.791 9.18555 14.919L9.18484 14.919ZM15.8081 6.87292L8.2996 13.5829L8.2046 13.4853C8.27075 13.1692 8.1856 12.8255 7.94704 12.5803C7.70849 12.3351 7.37423 12.2476 7.06672 12.3156L6.97172 12.2179L13.4992 4.49939L16.7348 3.54598L15.8073 6.87209L15.8081 6.87292ZM15.3627 5.70611L15.5428 5.05868C15.5759 4.94077 15.6955 4.87205 15.8103 4.90605C15.925 4.94005 15.9911 5.06302 15.9587 5.18094L15.7786 5.82836C15.7511 5.92602 15.6646 5.98968 15.571 5.98968C15.5513 5.98968 15.5316 5.98678 15.5112 5.98099C15.3965 5.947 15.3303 5.82402 15.3627 5.70611ZM9.05195 11.13L14.075 5.96648C14.1594 5.87967 14.296 5.87967 14.3804 5.96648C14.4648 6.05328 14.4648 6.19363 14.3804 6.28042L9.35735 11.4439C9.31513 11.4873 9.25954 11.509 9.20465 11.509C9.14906 11.509 9.09417 11.4873 9.05195 11.4439C8.9675 11.3571 8.96751 11.2168 9.05195 11.13Z" fill="#2600AF"/>
<path d="M17.2043 3.06509C17.1487 3.00794 17.0671 2.98624 16.9918 3.00866L13.3198 4.09011C13.2797 4.10168 13.2438 4.12555 13.2164 4.15811L6.6664 11.9026L6.46865 11.6993C6.1365 11.3578 5.92329 10.9057 5.86699 10.4254C5.85714 10.3408 5.80155 10.2699 5.72344 10.2417C5.64533 10.2142 5.55877 10.2344 5.49966 10.2945L5.14711 10.6554C4.77485 11.0381 4.77415 11.6631 5.14711 12.0479L5.95496 12.8784L3.45056 15.4536C3.37808 15.421 3.29856 15.4029 3.21692 15.4029C3.06 15.4029 2.91292 15.4659 2.80244 15.5794C2.69125 15.693 2.63074 15.8449 2.63074 16.0062C2.63074 16.1675 2.69196 16.3187 2.80244 16.4323L4.19999 17.8689C4.31047 17.9832 4.45825 18.0454 4.61447 18.0454C4.77139 18.0454 4.91847 17.9825 5.02966 17.8689C5.14014 17.7554 5.20136 17.6035 5.20136 17.4429C5.20136 17.3597 5.18447 17.2787 5.1528 17.2041L7.65721 14.6282L8.46577 15.4594C8.65296 15.6503 8.89783 15.7466 9.14272 15.7466C9.38832 15.7466 9.63321 15.6504 9.81968 15.4587L10.1701 15.097C10.2285 15.0369 10.2482 14.9472 10.2215 14.8669C10.194 14.7866 10.1251 14.7295 10.0428 14.7194C9.81052 14.6912 9.58534 14.6232 9.37282 14.5183C9.16171 14.4127 8.9696 14.2723 8.80352 14.1016L8.60577 13.8983L16.1395 7.16518C16.1712 7.13697 16.1937 7.10007 16.2057 7.05884L17.2577 3.28421C17.2795 3.20681 17.2584 3.1229 17.2028 3.06575L17.2043 3.06509ZM7.64242 13.6575C7.43765 13.868 7.10479 13.868 6.90002 13.6575C6.69524 13.447 6.69524 13.1048 6.90002 12.8943C7.00205 12.7894 7.13646 12.7366 7.27157 12.7366C7.40598 12.7366 7.54039 12.7894 7.64242 12.8943C7.8472 13.1048 7.8472 13.447 7.64242 13.6575ZM5.45255 10.9701L5.52151 10.8999C5.64044 11.3188 5.8614 11.7043 6.16259 12.0139L6.65729 12.5225C6.63618 12.5413 6.61436 12.5601 6.59466 12.5811C6.53977 12.6375 6.49403 12.6997 6.45533 12.7648L5.45396 11.7354C5.24918 11.5242 5.24918 11.1813 5.45325 10.9715L5.45255 10.9701ZM6.42859 15.2647L5.33715 14.1428L5.55529 13.9185L6.64673 15.0405L6.42859 15.2647ZM5.90432 15.8036L4.81288 14.6817L5.03102 14.4574L6.12247 15.5794L5.90432 15.8036ZM5.38006 16.3426L4.28862 15.2206L4.50676 14.9964L5.5982 16.1183L5.38006 16.3426ZM3.78547 15.7386L3.98322 15.5353L5.07466 16.6572L4.87691 16.8605L3.78547 15.7386ZM4.7235 17.5557C4.66509 17.6157 4.56375 17.6157 4.50535 17.5557L3.10781 16.1191C3.07895 16.0894 3.06277 16.0489 3.06277 16.0069C3.06277 15.9642 3.07896 15.9245 3.10781 15.8948C3.13807 15.8637 3.17747 15.8485 3.21688 15.8485C3.25629 15.8485 3.2957 15.8637 3.32595 15.8948L4.7235 17.3314C4.78402 17.3936 4.78401 17.4942 4.7235 17.5557ZM6.95138 14.7266L5.85994 13.6046L6.26035 13.193L6.31524 13.2495C6.3082 13.5106 6.40039 13.7739 6.59391 13.9721C6.7804 14.1638 7.02527 14.26 7.27087 14.26C7.28001 14.26 7.28846 14.2593 7.2969 14.2586L7.35179 14.315L6.95138 14.7266ZM9.18484 14.919C9.31362 14.9827 9.44591 15.0348 9.58173 15.0753L9.51347 15.1455C9.30869 15.356 8.97584 15.3552 8.77036 15.1455L7.80981 14.158V14.1573H7.80911L7.7683 14.1154C7.83163 14.0756 7.89215 14.0286 7.94704 13.9721C7.96744 13.9512 7.98574 13.9295 8.00404 13.9078L8.49874 14.4163C8.6993 14.6225 8.9294 14.791 9.18555 14.919L9.18484 14.919ZM15.8081 6.87292L8.2996 13.5829L8.2046 13.4853C8.27075 13.1692 8.1856 12.8255 7.94704 12.5803C7.70849 12.3351 7.37423 12.2476 7.06672 12.3156L6.97172 12.2179L13.4992 4.49939L16.7348 3.54598L15.8073 6.87209L15.8081 6.87292ZM15.3627 5.70611L15.5428 5.05868C15.5759 4.94077 15.6955 4.87205 15.8103 4.90605C15.925 4.94005 15.9911 5.06302 15.9587 5.18094L15.7786 5.82836C15.7511 5.92602 15.6646 5.98968 15.571 5.98968C15.5513 5.98968 15.5316 5.98678 15.5112 5.98099C15.3965 5.947 15.3303 5.82402 15.3627 5.70611ZM9.05195 11.13L14.075 5.96648C14.1594 5.87967 14.296 5.87967 14.3804 5.96648C14.4648 6.05328 14.4648 6.19363 14.3804 6.28042L9.35735 11.4439C9.31513 11.4873 9.25954 11.509 9.20465 11.509C9.14906 11.509 9.09417 11.4873 9.05195 11.4439C8.9675 11.3571 8.96751 11.2168 9.05195 11.13Z" fill="#1F008E"/>
<path d="M7.64242 13.5674C7.43765 13.7779 7.10479 13.7779 6.90002 13.5674C6.69524 13.3569 6.69524 13.0147 6.90002 12.8042C7.00205 12.6993 7.13646 12.6465 7.27157 12.6465C7.40598 12.6465 7.54039 12.6993 7.64242 12.8042C7.8472 13.0147 7.8472 13.3569 7.64242 13.5674ZM5.45255 10.88L5.52151 10.8098C5.64044 11.2286 5.8614 11.6142 6.16259 11.9238L6.65729 12.4323C6.63618 12.4511 6.61436 12.4699 6.59466 12.4909C6.53977 12.5473 6.49403 12.6095 6.45532 12.6747L5.45396 11.6453C5.24918 11.4341 5.24918 11.0912 5.45325 10.8814L5.45255 10.88ZM6.42859 15.1746L5.33715 14.0526L5.55529 13.8284L6.64673 14.9503L6.42859 15.1746ZM5.90432 15.7135L4.81288 14.5915L5.03102 14.3673L6.12246 15.4893L5.90432 15.7135ZM5.38006 16.2524L4.28862 15.1305L4.50676 14.9062L5.5982 16.0282L5.38006 16.2524ZM3.78547 15.6484L3.98322 15.4451L5.07466 16.5671L4.87691 16.7704L3.78547 15.6484ZM4.72349 17.4655C4.66509 17.5256 4.56375 17.5256 4.50535 17.4655L3.10781 16.0289C3.07895 15.9993 3.06277 15.9587 3.06277 15.9168C3.06277 15.8741 3.07896 15.8343 3.10781 15.8047C3.13807 15.7736 3.17747 15.7584 3.21688 15.7584C3.25629 15.7584 3.2957 15.7736 3.32595 15.8047L4.7235 17.2413C4.78402 17.3035 4.78401 17.4041 4.72349 17.4655ZM6.95138 14.6365L5.85994 13.5145L6.26035 13.1029L6.31524 13.1593C6.3082 13.4205 6.40039 13.6838 6.59391 13.882C6.7804 14.0737 7.02527 14.1699 7.27087 14.1699C7.28001 14.1699 7.28846 14.1692 7.2969 14.1684L7.35179 14.2249L6.95138 14.6365ZM9.18484 14.8289C9.31362 14.8926 9.44591 14.9446 9.58173 14.9851L9.51347 15.0553C9.30869 15.2658 8.97583 15.2651 8.77036 15.0553L7.80981 14.0679L7.80911 14.0672L7.76829 14.0252C7.83163 13.9854 7.89215 13.9384 7.94704 13.882C7.96744 13.861 7.98574 13.8393 8.00404 13.8176L8.49874 14.3262C8.6993 14.5323 8.92869 14.7009 9.18484 14.8289Z" fill="#2600AF"/>
<path d="M7.64242 13.5674C7.43765 13.7779 7.10479 13.7779 6.90002 13.5674C6.69524 13.3569 6.69524 13.0147 6.90002 12.8042C7.00205 12.6993 7.13646 12.6465 7.27157 12.6465C7.40598 12.6465 7.54039 12.6993 7.64242 12.8042C7.8472 13.0147 7.8472 13.3569 7.64242 13.5674ZM5.45255 10.88L5.52151 10.8098C5.64044 11.2286 5.8614 11.6142 6.16259 11.9238L6.65729 12.4323C6.63618 12.4511 6.61436 12.4699 6.59466 12.4909C6.53977 12.5473 6.49403 12.6095 6.45532 12.6747L5.45396 11.6453C5.24918 11.4341 5.24918 11.0912 5.45325 10.8814L5.45255 10.88ZM6.42859 15.1746L5.33715 14.0526L5.55529 13.8284L6.64673 14.9503L6.42859 15.1746ZM5.90432 15.7135L4.81288 14.5915L5.03102 14.3673L6.12246 15.4893L5.90432 15.7135ZM5.38006 16.2524L4.28862 15.1305L4.50676 14.9062L5.5982 16.0282L5.38006 16.2524ZM3.78547 15.6484L3.98322 15.4451L5.07466 16.5671L4.87691 16.7704L3.78547 15.6484ZM4.72349 17.4655C4.66509 17.5256 4.56375 17.5256 4.50535 17.4655L3.10781 16.0289C3.07895 15.9993 3.06277 15.9587 3.06277 15.9168C3.06277 15.8741 3.07896 15.8343 3.10781 15.8047C3.13807 15.7736 3.17747 15.7584 3.21688 15.7584C3.25629 15.7584 3.2957 15.7736 3.32595 15.8047L4.7235 17.2413C4.78402 17.3035 4.78401 17.4041 4.72349 17.4655ZM6.95138 14.6365L5.85994 13.5145L6.26035 13.1029L6.31524 13.1593C6.3082 13.4205 6.40039 13.6838 6.59391 13.882C6.7804 14.0737 7.02527 14.1699 7.27087 14.1699C7.28001 14.1699 7.28846 14.1692 7.2969 14.1684L7.35179 14.2249L6.95138 14.6365ZM9.18484 14.8289C9.31362 14.8926 9.44591 14.9446 9.58173 14.9851L9.51347 15.0553C9.30869 15.2658 8.97583 15.2651 8.77036 15.0553L7.80981 14.0679L7.80911 14.0672L7.76829 14.0252C7.83163 13.9854 7.89215 13.9384 7.94704 13.882C7.96744 13.861 7.98574 13.8393 8.00404 13.8176L8.49874 14.3262C8.6993 14.5323 8.92869 14.7009 9.18484 14.8289Z" fill="#2600AF"/>
<path d="M7.64242 13.5674C7.43765 13.7779 7.10479 13.7779 6.90002 13.5674C6.69524 13.3569 6.69524 13.0147 6.90002 12.8042C7.00205 12.6993 7.13646 12.6465 7.27157 12.6465C7.40598 12.6465 7.54039 12.6993 7.64242 12.8042C7.8472 13.0147 7.8472 13.3569 7.64242 13.5674ZM5.45255 10.88L5.52151 10.8098C5.64044 11.2286 5.8614 11.6142 6.16259 11.9238L6.65729 12.4323C6.63618 12.4511 6.61436 12.4699 6.59466 12.4909C6.53977 12.5473 6.49403 12.6095 6.45532 12.6747L5.45396 11.6453C5.24918 11.4341 5.24918 11.0912 5.45325 10.8814L5.45255 10.88ZM6.42859 15.1746L5.33715 14.0526L5.55529 13.8284L6.64673 14.9503L6.42859 15.1746ZM5.90432 15.7135L4.81288 14.5915L5.03102 14.3673L6.12246 15.4893L5.90432 15.7135ZM5.38006 16.2524L4.28862 15.1305L4.50676 14.9062L5.5982 16.0282L5.38006 16.2524ZM3.78547 15.6484L3.98322 15.4451L5.07466 16.5671L4.87691 16.7704L3.78547 15.6484ZM4.72349 17.4655C4.66509 17.5256 4.56375 17.5256 4.50535 17.4655L3.10781 16.0289C3.07895 15.9993 3.06277 15.9587 3.06277 15.9168C3.06277 15.8741 3.07896 15.8343 3.10781 15.8047C3.13807 15.7736 3.17747 15.7584 3.21688 15.7584C3.25629 15.7584 3.2957 15.7736 3.32595 15.8047L4.7235 17.2413C4.78402 17.3035 4.78401 17.4041 4.72349 17.4655ZM6.95138 14.6365L5.85994 13.5145L6.26035 13.1029L6.31524 13.1593C6.3082 13.4205 6.40039 13.6838 6.59391 13.882C6.7804 14.0737 7.02527 14.1699 7.27087 14.1699C7.28001 14.1699 7.28846 14.1692 7.2969 14.1684L7.35179 14.2249L6.95138 14.6365ZM9.18484 14.8289C9.31362 14.8926 9.44591 14.9446 9.58173 14.9851L9.51347 15.0553C9.30869 15.2658 8.97583 15.2651 8.77036 15.0553L7.80981 14.0679L7.80911 14.0672L7.76829 14.0252C7.83163 13.9854 7.89215 13.9384 7.94704 13.882C7.96744 13.861 7.98574 13.8393 8.00404 13.8176L8.49874 14.3262C8.6993 14.5323 8.92869 14.7009 9.18484 14.8289Z" fill="#2600AF"/>
<path d="M7.64242 13.5674C7.43765 13.7779 7.10479 13.7779 6.90002 13.5674C6.69524 13.3569 6.69524 13.0147 6.90002 12.8042C7.00205 12.6993 7.13646 12.6465 7.27157 12.6465C7.40598 12.6465 7.54039 12.6993 7.64242 12.8042C7.8472 13.0147 7.8472 13.3569 7.64242 13.5674ZM5.45255 10.88L5.52151 10.8098C5.64044 11.2286 5.8614 11.6142 6.16259 11.9238L6.65729 12.4323C6.63618 12.4511 6.61436 12.4699 6.59466 12.4909C6.53977 12.5473 6.49403 12.6095 6.45532 12.6747L5.45396 11.6453C5.24918 11.4341 5.24918 11.0912 5.45325 10.8814L5.45255 10.88ZM6.42859 15.1746L5.33715 14.0526L5.55529 13.8284L6.64673 14.9503L6.42859 15.1746ZM5.90432 15.7135L4.81288 14.5915L5.03102 14.3673L6.12246 15.4893L5.90432 15.7135ZM5.38006 16.2524L4.28862 15.1305L4.50676 14.9062L5.5982 16.0282L5.38006 16.2524ZM3.78547 15.6484L3.98322 15.4451L5.07466 16.5671L4.87691 16.7704L3.78547 15.6484ZM4.72349 17.4655C4.66509 17.5256 4.56375 17.5256 4.50535 17.4655L3.10781 16.0289C3.07895 15.9993 3.06277 15.9587 3.06277 15.9168C3.06277 15.8741 3.07896 15.8343 3.10781 15.8047C3.13807 15.7736 3.17747 15.7584 3.21688 15.7584C3.25629 15.7584 3.2957 15.7736 3.32595 15.8047L4.7235 17.2413C4.78402 17.3035 4.78401 17.4041 4.72349 17.4655ZM6.95138 14.6365L5.85994 13.5145L6.26035 13.1029L6.31524 13.1593C6.3082 13.4205 6.40039 13.6838 6.59391 13.882C6.7804 14.0737 7.02527 14.1699 7.27087 14.1699C7.28001 14.1699 7.28846 14.1692 7.2969 14.1684L7.35179 14.2249L6.95138 14.6365ZM9.18484 14.8289C9.31362 14.8926 9.44591 14.9446 9.58173 14.9851L9.51347 15.0553C9.30869 15.2658 8.97583 15.2651 8.77036 15.0553L7.80981 14.0679L7.80911 14.0672L7.76829 14.0252C7.83163 13.9854 7.89215 13.9384 7.94704 13.882C7.96744 13.861 7.98574 13.8393 8.00404 13.8176L8.49874 14.3262C8.6993 14.5323 8.92869 14.7009 9.18484 14.8289Z" fill="#2600AF"/>
<path d="M7.64242 13.5674C7.43765 13.7779 7.10479 13.7779 6.90002 13.5674C6.69524 13.3569 6.69524 13.0147 6.90002 12.8042C7.00205 12.6993 7.13646 12.6465 7.27157 12.6465C7.40598 12.6465 7.54039 12.6993 7.64242 12.8042C7.8472 13.0147 7.8472 13.3569 7.64242 13.5674ZM5.45255 10.88L5.52151 10.8098C5.64044 11.2286 5.8614 11.6142 6.16259 11.9238L6.65729 12.4323C6.63618 12.4511 6.61436 12.4699 6.59466 12.4909C6.53977 12.5473 6.49403 12.6095 6.45532 12.6747L5.45396 11.6453C5.24918 11.4341 5.24918 11.0912 5.45325 10.8814L5.45255 10.88ZM6.42859 15.1746L5.33715 14.0526L5.55529 13.8284L6.64673 14.9503L6.42859 15.1746ZM5.90432 15.7135L4.81288 14.5915L5.03102 14.3673L6.12246 15.4893L5.90432 15.7135ZM5.38006 16.2524L4.28862 15.1305L4.50676 14.9062L5.5982 16.0282L5.38006 16.2524ZM3.78547 15.6484L3.98322 15.4451L5.07466 16.5671L4.87691 16.7704L3.78547 15.6484ZM4.72349 17.4655C4.66509 17.5256 4.56375 17.5256 4.50535 17.4655L3.10781 16.0289C3.07895 15.9993 3.06277 15.9587 3.06277 15.9168C3.06277 15.8741 3.07896 15.8343 3.10781 15.8047C3.13807 15.7736 3.17747 15.7584 3.21688 15.7584C3.25629 15.7584 3.2957 15.7736 3.32595 15.8047L4.7235 17.2413C4.78402 17.3035 4.78401 17.4041 4.72349 17.4655ZM6.95138 14.6365L5.85994 13.5145L6.26035 13.1029L6.31524 13.1593C6.3082 13.4205 6.40039 13.6838 6.59391 13.882C6.7804 14.0737 7.02527 14.1699 7.27087 14.1699C7.28001 14.1699 7.28846 14.1692 7.2969 14.1684L7.35179 14.2249L6.95138 14.6365ZM9.18484 14.8289C9.31362 14.8926 9.44591 14.9446 9.58173 14.9851L9.51347 15.0553C9.30869 15.2658 8.97583 15.2651 8.77036 15.0553L7.80981 14.0679L7.80911 14.0672L7.76829 14.0252C7.83163 13.9854 7.89215 13.9384 7.94704 13.882C7.96744 13.861 7.98574 13.8393 8.00404 13.8176L8.49874 14.3262C8.6993 14.5323 8.92869 14.7009 9.18484 14.8289Z" fill="#222222"/>
</svg>
