<svg width="37" height="45" viewBox="0 0 37 45" fill="none" xmlns="http://www.w3.org/2000/svg">
<path d="M21.053 10.1263C23.171 10.1263 25.0907 10.9779 26.4782 12.3542C27.867 13.7305 28.7263 15.6315 28.7263 17.7305C28.7263 19.8295 27.867 21.7319 26.4782 23.1069C25.0894 24.4832 23.1711 25.3347 21.053 25.3347C19.1031 25.3347 17.3214 24.6134 15.9682 23.4259L9.70744 29.6289C9.37897 29.9544 8.84682 29.9544 8.51833 29.6289C8.18985 29.3034 8.18985 28.776 8.51833 28.4505L14.8369 22.1888C13.9198 20.9362 13.3785 19.3945 13.3785 17.7291C13.3785 15.6302 14.2378 13.7278 15.6266 12.3528C17.0154 10.9765 18.9337 10.1249 21.0518 10.1249L21.053 10.1263ZM25.0382 17.7303C25.0382 17.4543 25.2642 17.2303 25.5428 17.2303C25.8213 17.2303 26.0473 17.4543 26.0473 17.7303C26.0473 18.8697 25.6558 19.9217 25.0014 20.759C24.3313 21.6157 23.3827 22.2486 22.2934 22.5246C22.0241 22.5923 21.7482 22.4309 21.6798 22.1639C21.6115 21.897 21.7744 21.6236 22.0438 21.5559C22.9136 21.3358 23.6704 20.8306 24.2039 20.1483C24.7255 19.4816 25.0369 18.6418 25.0369 17.729L25.0382 17.7303ZM20.8888 21.6783C21.1661 21.6875 21.3829 21.9192 21.3737 22.194C21.3645 22.4687 21.1306 22.6836 20.8534 22.6744C20.4171 22.6575 19.998 22.5859 19.6038 22.4687C19.1926 22.3437 18.805 22.1692 18.4502 21.9544C18.2124 21.8111 18.1388 21.5038 18.2833 21.2695C18.4279 21.0338 18.738 20.9609 18.9745 21.1041C19.2622 21.2786 19.571 21.4179 19.8955 21.5143C20.2161 21.608 20.5499 21.6666 20.8902 21.6796L20.8888 21.6783ZM25.2892 13.5313C24.2052 12.4571 22.7073 11.7931 21.0516 11.7931C19.3974 11.7931 17.8982 12.4571 16.8141 13.5313C15.7301 14.6056 15.0601 16.0899 15.0601 17.7307C15.0601 19.2528 15.6382 20.6421 16.5882 21.693L16.6026 21.7086C16.6723 21.7842 16.7419 21.8584 16.8142 21.93C17.8982 23.0042 19.396 23.6683 21.0517 23.6683C22.7059 23.6683 24.2051 23.0042 25.2892 21.93C26.3732 20.8558 27.0433 19.3714 27.0433 17.7307C27.0433 16.0913 26.3731 14.6057 25.2892 13.5313Z" fill="white"/>
</svg>
