<svg width="27" height="17" viewBox="0 0 27 17" fill="none" xmlns="http://www.w3.org/2000/svg">
<path d="M9.59439 12.8309C9.89828 12.7594 10.1854 12.6921 10.447 12.6086C10.7272 12.5203 11.0722 12.3892 11.2582 12.1532C11.4741 11.8789 11.4939 11.5216 11.3103 11.2206L11.2498 11.1215C11.2249 11.0806 11.2 11.039 11.1751 10.998C10.6591 10.8592 10.1296 10.7617 9.66849 10.615C9.088 10.4293 8.46971 10.1098 8.36111 9.34675C8.31281 9.00887 8.40251 8.66243 8.57861 8.37536C9.0961 7.53259 9.61809 6.68695 9.91778 5.7143C10.0234 5.37484 10.0909 5.06618 9.84608 4.7172C9.60489 4.37774 9.74468 3.93031 9.74468 3.5321C9.73208 1.41754 8.43131 0.0314374 6.74985 0C5.06899 0.0314374 3.76792 1.41754 3.75502 3.5321C3.75502 3.93031 3.89451 4.37774 3.65362 4.7172C3.40882 5.06618 3.47632 5.37452 3.58192 5.7143C3.89031 6.71585 4.4354 7.5834 4.96759 8.45062C5.26428 8.93711 5.23698 9.54013 4.88089 9.99201C4.6199 10.3232 4.21521 10.4909 3.83541 10.6106C2.50914 11.0355 0.621286 11.0488 0.122997 12.7969C0.042599 13.0741 0 13.4003 0 13.7759V14.0582C0 14.3069 0.190796 14.5095 0.426291 14.5095H6.66915C7.30424 13.3717 8.55731 13.0741 9.59439 12.8309ZM26.8767 13.1037C26.3784 11.3556 24.4906 11.3422 23.164 10.9173C22.7842 10.7976 22.3798 10.63 22.1191 10.2988C21.7627 9.84689 21.7354 9.24418 22.0321 8.75737C22.5643 7.89015 23.1094 7.02292 23.4178 6.02105C23.5234 5.68096 23.5909 5.37293 23.3458 5.02395C23.1049 4.68385 23.2444 4.23706 23.2444 3.83885C23.2315 1.72493 21.9307 0.338508 20.2495 0.30707C18.5684 0.338508 17.2673 1.72461 17.255 3.83917C17.255 4.23738 17.3945 4.68417 17.1533 5.02426C16.9085 5.37325 16.976 5.68127 17.0816 6.02137C17.381 6.99402 17.9033 7.83966 18.4211 8.68212C18.5972 8.96918 18.6869 9.31563 18.6386 9.65382C18.53 10.4166 17.9117 10.736 17.3315 10.9218C16.814 11.0863 16.2119 11.1892 15.6387 11.3572C15.5922 11.4931 15.5727 11.6321 15.5913 11.7604C15.6477 12.1599 15.9374 12.4152 16.5584 12.6134C16.8152 12.6956 17.1005 12.7617 17.402 12.8318C18.5291 13.0951 19.9118 13.4187 20.4802 14.8165H26.5737C26.8092 14.8165 27 14.6139 27 14.3653V14.083C26.9994 13.707 26.9568 13.3809 26.8767 13.1037ZM16.4183 13.1049C15.8378 12.9192 15.2199 12.5997 15.1113 11.837C15.063 11.4991 15.1527 11.152 15.3288 10.8653C15.8465 10.0228 16.3685 9.17717 16.6682 8.20452C16.7738 7.86443 16.8413 7.55609 16.5965 7.20742C16.3553 6.86732 16.4948 6.42053 16.4948 6.02232C16.4816 3.90744 15.1809 2.52166 13.4997 2.49022C11.8188 2.52166 10.5178 3.90744 10.5049 6.02232C10.5049 6.42053 10.6444 6.86732 10.4035 7.20742C10.1587 7.55577 10.2262 7.86443 10.3318 8.20452C10.6402 9.20639 11.1853 10.0733 11.7174 10.9408C12.0141 11.427 11.9868 12.0304 11.6307 12.4822C11.3697 12.8134 10.9651 12.9811 10.5853 13.1008C9.25899 13.5254 7.37114 13.539 6.87285 15.2871C6.79245 15.5644 6.75015 15.8905 6.75015 16.2665V16.5488C6.75015 16.7974 6.94095 17 7.17644 17H19.8236C20.0591 17 20.2498 16.7974 20.2498 16.5488V16.2665C20.2498 15.8905 20.2076 15.5644 20.1275 15.2871C19.6286 13.5387 17.7407 13.5251 16.4183 13.1049Z" fill="white"/>
</svg>
