<svg width="16" height="17" viewBox="0 0 16 17" fill="none" xmlns="http://www.w3.org/2000/svg">
<path d="M15.7172 11.0954C15.0887 10.5398 14.1266 10.4392 13.378 10.85L10.9402 12.1922C10.6945 11.7761 10.2181 11.4937 9.67172 11.4937L7.1919 11.4943C6.9862 11.4943 6.78263 11.4447 6.60121 11.3495L5.01483 10.5166C4.46628 10.2289 3.79775 10.2024 3.22418 10.4498L2.99776 10.5471C2.9199 10.2348 2.61849 10 2.25707 10H0.76212C0.341418 10 0 10.3155 0 10.7058V16.1533C0 16.5429 0.340705 16.8591 0.76212 16.8591H2.25707C2.67777 16.8591 3.01919 16.5436 3.01919 16.1533V16.0474L3.69131 15.7689L7.26621 16.8677C7.55406 16.9557 7.85119 17 8.14618 17C8.74973 17 9.344 16.8181 9.83755 16.4708L15.6408 12.3781C15.8544 12.2279 15.9837 12.0004 15.9987 11.7536C16.013 11.5049 15.9101 11.2668 15.7172 11.0954ZM0.762065 16.1532V10.7058H2.25701V11.0974V11.108V16.1546H0.762065V16.1532ZM15.1787 11.8172L9.37541 15.9099C8.84185 16.2856 8.14331 16.3934 7.50686 16.199L3.79061 15.0559C3.69919 15.0274 3.60206 15.0327 3.5142 15.0685L3.01922 15.2729V11.3165L3.54706 11.0889C3.89561 10.9388 4.30488 10.9533 4.64059 11.1293L6.22697 11.9621C6.52053 12.1175 6.85551 12.1982 7.19264 12.1982H9.67464C10.0518 12.1982 10.3568 12.482 10.3568 12.83V13.1601C10.3568 13.1845 10.3361 13.2044 10.3089 13.2044L6.75412 13.2037C6.54485 13.2037 6.37343 13.3625 6.37343 13.5563C6.37343 13.7501 6.54485 13.9089 6.75412 13.9089H10.3084C10.7541 13.9089 11.1176 13.5722 11.1176 13.1594V12.9179L13.769 11.4574C14.2239 11.2066 14.8089 11.2688 15.1917 11.6055C15.2353 11.6446 15.2396 11.6902 15.2375 11.7134C15.236 11.7378 15.2259 11.7821 15.1787 11.8172Z" fill="white"/>
<path d="M9.50003 1.08935C9.85355 1.0017 10.4696 1.77997 10.6617 2.06213C11.0555 2.66511 11.207 3.42386 11.1262 4.15359C11.0957 4.46468 11.0051 4.77613 10.9949 5.08721C10.9645 5.45697 11.1465 5.87526 11.5402 5.96253C12.3684 6.157 12.4191 4.9413 12.7523 5.58336C13.4797 6.96463 13.3484 8.79311 12.0957 9.8437C11.9945 9.94112 11.2269 10.5539 11.2773 10.2424C11.2977 10.1063 11.4793 9.78539 11.4996 9.48372C11.55 9.10455 11.3887 8.53054 11.1359 8.29696C10.8734 8.08292 10.6715 8.44291 10.4187 8.53995C10.0047 8.72465 9.58047 8.36504 9.39845 8.01484C9.14611 7.54803 9.12579 7.01317 9.28751 6.39061C9.36837 6.05018 9.51993 5.66124 9.64103 5.34002C9.69142 5.20385 9.70158 5.13576 9.68126 5.13576C9.65079 5.13576 9.62072 5.1651 9.59025 5.18429C9.3883 5.34002 8.95392 5.72896 8.55975 6.27359C7.81209 7.22677 7.49925 8.81225 8.13553 9.97946C8.27694 10.242 8.38787 10.4267 8.30741 10.456C8.166 10.4854 7.93358 10.3394 7.66093 10.1837C6.17693 9.25047 5.86363 7.58708 6.41913 6.06965C6.91405 4.53266 8.44963 3.59907 9.07573 2.12034C9.18667 1.87735 9.25737 1.58545 9.32807 1.34208C9.37885 1.21569 9.41916 1.12846 9.50003 1.08935Z" fill="#DB0000"/>
</svg>
