<svg width="16" height="17" viewBox="0 0 16 17" fill="none" xmlns="http://www.w3.org/2000/svg">
<path d="M15.7172 11.0954C15.0887 10.5398 14.1266 10.4392 13.378 10.85L10.9402 12.1922C10.6945 11.7761 10.2181 11.4937 9.67172 11.4937L7.1919 11.4943C6.9862 11.4943 6.78263 11.4447 6.60121 11.3495L5.01483 10.5166C4.46628 10.2289 3.79775 10.2024 3.22418 10.4498L2.99776 10.5471C2.9199 10.2348 2.61849 10 2.25707 10H0.76212C0.341418 10 0 10.3155 0 10.7058V16.1533C0 16.5429 0.340705 16.8591 0.76212 16.8591H2.25707C2.67777 16.8591 3.01919 16.5436 3.01919 16.1533V16.0474L3.69131 15.7689L7.26621 16.8677C7.55406 16.9557 7.85119 17 8.14618 17C8.74973 17 9.344 16.8181 9.83755 16.4708L15.6408 12.3781C15.8544 12.2279 15.9837 12.0004 15.9987 11.7536C16.013 11.5049 15.9101 11.2668 15.7172 11.0954ZM0.762065 16.1532V10.7058H2.25701V11.0974V11.108V16.1546H0.762065V16.1532ZM15.1787 11.8172L9.37541 15.9099C8.84185 16.2856 8.14331 16.3934 7.50686 16.199L3.79061 15.0559C3.69919 15.0274 3.60206 15.0327 3.5142 15.0685L3.01922 15.2729V11.3165L3.54706 11.0889C3.89561 10.9388 4.30488 10.9533 4.64059 11.1293L6.22697 11.9621C6.52053 12.1175 6.85551 12.1982 7.19264 12.1982H9.67464C10.0518 12.1982 10.3568 12.482 10.3568 12.83V13.1601C10.3568 13.1845 10.3361 13.2044 10.3089 13.2044L6.75412 13.2037C6.54485 13.2037 6.37343 13.3625 6.37343 13.5563C6.37343 13.7501 6.54485 13.9089 6.75412 13.9089H10.3084C10.7541 13.9089 11.1176 13.5722 11.1176 13.1594V12.9179L13.769 11.4574C14.2239 11.2066 14.8089 11.2688 15.1917 11.6055C15.2353 11.6446 15.2396 11.6902 15.2375 11.7134C15.236 11.7378 15.2259 11.7821 15.1787 11.8172Z" fill="white"/>
<path d="M10.996 2.53845L10.5762 3.55775C10.5636 3.58806 10.5482 3.61388 10.5299 3.63477C10.5116 3.65566 10.4883 3.6741 10.4617 3.68844L9.56903 4.16777C9.45026 4.23127 9.35518 4.32713 9.28988 4.44512C9.22386 4.56352 9.18833 4.70199 9.18833 4.85071C9.18833 4.99902 9.22421 5.1379 9.28988 5.2563C9.35518 5.37347 9.45026 5.46975 9.56903 5.53365L10.4617 6.01298C10.4883 6.02732 10.5109 6.04494 10.5292 6.06583C10.5475 6.08672 10.5636 6.11335 10.5762 6.14367L10.996 7.16297C11.0516 7.29858 11.1356 7.40714 11.2389 7.48171C11.3426 7.55709 11.4639 7.59765 11.5941 7.59765C11.724 7.59765 11.8457 7.55669 11.9494 7.48171C12.0523 7.40715 12.1363 7.29858 12.1923 7.16297L12.6121 6.14367C12.6243 6.11458 12.6397 6.08877 12.6591 6.06665C12.6785 6.04453 12.7011 6.0265 12.7265 6.01298L13.6193 5.53365C13.738 5.47015 13.8331 5.37429 13.8984 5.2563C13.9644 5.1379 14 4.99943 14 4.85071C14 4.7024 13.9641 4.56352 13.8984 4.44512C13.8331 4.32754 13.738 4.23167 13.6193 4.16777L12.7265 3.68844C12.7011 3.67451 12.6785 3.65689 12.6591 3.63477C12.6393 3.61224 12.6239 3.58684 12.6121 3.55775L12.1923 2.53845C12.1367 2.40284 12.0527 2.29469 11.9494 2.21971C11.8457 2.14433 11.7244 2.10377 11.5941 2.10377C11.4642 2.10377 11.3426 2.14473 11.2389 2.21971C11.1363 2.29427 11.052 2.40284 10.996 2.53845ZM8.04766 6.23911L7.74339 6.97778C7.73801 6.9917 7.73012 7.00399 7.72043 7.01506L7.71433 7.02202C7.70644 7.0294 7.69782 7.03554 7.68778 7.04087L7.04085 7.38828C6.94432 7.44031 6.86719 7.51774 6.81407 7.6136C6.76061 7.70988 6.73155 7.82295 6.73155 7.94299C6.73155 8.06302 6.76061 8.1761 6.81407 8.27237C6.86718 8.36783 6.94432 8.44566 7.04085 8.49769L7.68778 8.8451C7.69998 8.85125 7.71074 8.86026 7.72043 8.87132C7.73012 8.88239 7.73765 8.89468 7.74339 8.9086L8.04766 9.64727C8.09323 9.75748 8.16105 9.84555 8.245 9.90578C8.32932 9.96682 8.42835 10 8.53348 10C8.63861 10 8.73765 9.96682 8.82196 9.90578C8.90556 9.84514 8.97373 9.75706 9.0193 9.64727L9.32357 8.9086C9.32967 8.89386 9.3372 8.88157 9.34581 8.87132C9.3555 8.86026 9.36698 8.85207 9.37918 8.84551L10.0261 8.4981C10.1226 8.44648 10.1998 8.36864 10.2529 8.27278C10.3063 8.1765 10.3354 8.06343 10.3354 7.9434C10.3354 7.82336 10.3063 7.71028 10.2529 7.61401C10.1998 7.51855 10.1226 7.44072 10.0261 7.38869L9.37918 7.04128C9.36663 7.03431 9.3555 7.02571 9.34653 7.01588C9.33756 7.00563 9.33039 6.99334 9.32429 6.97859L9.02002 6.23993C8.97445 6.12972 8.90627 6.04165 8.82268 5.981C8.73836 5.91996 8.63933 5.88678 8.5342 5.88678C8.42907 5.88678 8.33003 5.91996 8.24572 5.981C8.16212 6.04164 8.09287 6.1289 8.04766 6.23911ZM6.80799 0.435095L6.38819 1.4544C6.37563 1.48471 6.3602 1.51052 6.3419 1.53142H6.34047C6.32109 1.55395 6.29849 1.57157 6.27301 1.58509L5.38029 2.06441C5.26153 2.12792 5.16645 2.22378 5.1015 2.34177C5.03548 2.46017 4.99995 2.59864 4.99995 2.74736C4.99995 2.89567 5.03583 3.03455 5.1015 3.15295C5.1668 3.27012 5.26153 3.3664 5.38029 3.4303L6.27301 3.90963C6.29956 3.92397 6.32217 3.94158 6.34047 3.96248C6.35877 3.98337 6.37491 4.01 6.38747 4.04032L6.80727 5.05962C6.86289 5.19523 6.94685 5.30379 7.05018 5.37836C7.15388 5.45374 7.27515 5.4943 7.4054 5.4943C7.5353 5.4943 7.65693 5.45333 7.76062 5.37836C7.8636 5.30379 7.94757 5.19523 8.00353 5.05962L8.42334 4.04032C8.43589 4.01 8.45132 3.98419 8.46962 3.9633C8.48792 3.9424 8.51124 3.92397 8.53744 3.90963L9.43015 3.4303C9.54856 3.3668 9.64364 3.27093 9.70895 3.15295C9.77497 3.03455 9.8105 2.89608 9.8105 2.74736C9.8105 2.59905 9.77426 2.46017 9.70895 2.34177C9.64365 2.2246 9.54856 2.12832 9.43015 2.06441L8.53744 1.58509C8.51196 1.57157 8.48936 1.55354 8.47034 1.53142L8.46209 1.5224C8.44702 1.50315 8.4341 1.48062 8.42334 1.45399L8.00353 0.434686C7.94792 0.299077 7.86396 0.190517 7.76062 0.115948C7.65693 0.0405657 7.53565 3.6678e-06 7.4054 3.6678e-06C7.27551 3.6678e-06 7.15388 0.0409716 7.05018 0.115948C6.94721 0.19051 6.86396 0.299486 6.80799 0.435095Z" fill="#00FFEA"/>
</svg>
