<svg width="24" height="24" viewBox="0 0 24 24" fill="none" xmlns="http://www.w3.org/2000/svg">
<path d="M9.59292 15.3297H14.3979V24H9.59292V15.3297ZM21.023 10.0667L11.9954 5.08982C8.6989 6.8228 3.09742 10.1966 2.04877 10.3961V23.9997H7.77284V14.4624C7.77398 13.9844 8.18121 13.5964 8.68289 13.5953H15.308C15.8096 13.5964 16.2169 13.9844 16.218 14.4624V23.9997H21.9421V10.3961C21.619 10.3332 21.3097 10.2217 21.023 10.0667ZM23.2833 6.00679L12.6712 0.173952C12.256 -0.0568946 11.743 -0.0579795 11.3267 0.170701L0.702052 6.0102C0.284569 6.23888 0.0286221 6.66373 0.0320293 7.12216C-0.0840015 7.62829 0.120759 8.15175 0.556445 8.46172C0.990993 8.77277 1.57569 8.81286 2.05345 8.56577L11.9958 3.09056L21.938 8.56577C23.7126 9.43604 24.7649 6.89565 23.2838 6.00692L23.2833 6.00679Z" fill="white"/>
</svg>
