<svg width="31" height="31" viewBox="0 0 31 31" fill="none" xmlns="http://www.w3.org/2000/svg">
<path d="M15.8768 6.61265C13.5302 6.61265 11.2803 7.54437 9.62169 9.20303C7.96303 10.8617 7.03132 13.1117 7.03132 15.4582C7.03132 17.8046 7.96303 20.0547 9.62169 21.7133C11.2804 23.372 13.5304 24.3037 15.8768 24.3037C18.2233 24.3037 20.4734 23.372 22.132 21.7133C23.7906 20.0546 24.7223 17.8046 24.7223 15.4582C24.7195 13.113 23.7848 10.8657 22.1276 9.20709C20.469 7.54987 18.2222 6.61553 15.8768 6.61265ZM15.8768 21.9963C14.1432 21.9963 12.4802 21.3083 11.253 20.0824C10.027 18.855 9.33901 17.192 9.33901 15.4585C9.33901 13.725 10.027 12.0619 11.253 10.8346C12.4804 9.60866 14.1433 8.92067 15.8768 8.92067C17.6103 8.92067 19.2735 9.60866 20.5007 10.8346C21.7267 12.062 22.4147 13.725 22.4147 15.4585C22.4118 17.1907 21.7209 18.8522 20.4949 20.0768C19.2704 21.3028 17.6091 21.9934 15.8768 21.9963ZM5.27732 6.48859C4.8533 6.03425 4.86626 5.3261 5.30473 4.8862C5.74463 4.44774 6.45281 4.43474 6.90712 4.8588L7.98453 5.93621V5.93477C8.20376 6.14967 8.3278 6.4439 8.3278 6.7511C8.3278 7.0583 8.20376 7.3511 7.98453 7.566C7.77251 7.78811 7.47684 7.91071 7.16964 7.90494C6.86243 7.90638 6.56964 7.78379 6.35331 7.566L5.27732 6.48859ZM26.4763 24.428C26.697 24.6415 26.821 24.9357 26.821 25.2429C26.821 25.5501 26.697 25.8444 26.4763 26.0578C26.2643 26.2814 25.9686 26.404 25.6614 26.3968C25.3557 26.3982 25.0614 26.2756 24.8466 26.0578L23.7691 24.9804V24.9818C23.3451 24.5261 23.3581 23.8179 23.798 23.3795C24.2364 22.9396 24.9446 22.9266 25.4004 23.3506L26.4763 24.428ZM8.0148 23.3506C8.23548 23.5655 8.35951 23.8583 8.35951 24.1655C8.35951 24.4727 8.23547 24.767 8.0148 24.9818L6.93739 26.0593L6.93883 26.0578C6.72248 26.2756 6.4297 26.3982 6.1225 26.3968C5.81528 26.404 5.51962 26.2814 5.3076 26.0578C5.08837 25.8444 4.96433 25.5501 4.96433 25.2429C4.96433 24.9357 5.08837 24.6415 5.3076 24.428L6.38502 23.3506C6.8278 22.9122 7.54174 22.9122 7.98453 23.3506L8.0148 23.3506ZM26.4763 4.88908C26.697 5.10399 26.821 5.39677 26.821 5.70397C26.821 6.01118 26.697 6.30541 26.4763 6.52031L25.3989 7.59772L25.4004 7.59628C25.184 7.81407 24.8912 7.93667 24.584 7.93522C24.2768 7.94243 23.9812 7.81984 23.7691 7.59628C23.5499 7.38282 23.4259 7.08859 23.4259 6.78139C23.4259 6.47419 23.5499 6.17995 23.7691 5.9665L24.8466 4.88908C25.0557 4.66552 25.3485 4.53571 25.6542 4.52994C25.9615 4.52417 26.2586 4.64244 26.4764 4.85879L26.4763 4.88908ZM4.72348 15.4583C4.71482 16.0915 4.20279 16.6035 3.56963 16.6122H2.03068C1.39316 16.6122 0.876831 16.0958 0.876831 15.4583C0.876831 14.8208 1.39316 14.3045 2.03068 14.3045H3.56963C4.20279 14.3131 4.71484 14.8252 4.72348 15.4583ZM30.8768 15.4583C30.8682 16.0915 30.3561 16.6035 29.723 16.6122H28.184C27.548 16.6122 27.0302 16.0958 27.0302 15.4583C27.0302 14.8208 27.548 14.3045 28.184 14.3045H29.723C30.3561 14.3131 30.8682 14.8252 30.8768 15.4583ZM17.0307 27.7655V29.3045C17.0307 29.942 16.5143 30.4583 15.8768 30.4583C15.2393 30.4583 14.723 29.942 14.723 29.3045V27.7655C14.723 27.1294 15.2393 26.6117 15.8768 26.6117C16.5143 26.6117 17.0307 27.1294 17.0307 27.7655ZM14.723 3.15111V1.61216C14.723 0.974645 15.2393 0.458313 15.8768 0.458313C16.5143 0.458313 17.0307 0.974645 17.0307 1.61216V3.15111C17.0307 3.78719 16.5143 4.30496 15.8768 4.30496C15.2393 4.30496 14.723 3.78719 14.723 3.15111Z" fill="white"/>
</svg>
